<?xml version="1.0" encoding="utf-8" standalone="no"?>
<!DOCTYPE svg PUBLIC "-//W3C//DTD SVG 1.1//EN"
  "http://www.w3.org/Graphics/SVG/1.1/DTD/svg11.dtd">
<svg xmlns:xlink="http://www.w3.org/1999/xlink" width="340.15748pt" height="255.11811pt" viewBox="0 0 340.15748 255.11811" xmlns="http://www.w3.org/2000/svg" version="1.1">
 <metadata>
  <rdf:RDF xmlns:dc="http://purl.org/dc/elements/1.1/" xmlns:cc="http://creativecommons.org/ns#" xmlns:rdf="http://www.w3.org/1999/02/22-rdf-syntax-ns#">
   <cc:Work>
    <dc:type rdf:resource="http://purl.org/dc/dcmitype/StillImage"/>
    <dc:date>2023-04-03T14:42:37.210751</dc:date>
    <dc:format>image/svg+xml</dc:format>
    <dc:creator>
     <cc:Agent>
      <dc:title>Matplotlib v3.6.2, https://matplotlib.org/</dc:title>
     </cc:Agent>
    </dc:creator>
   </cc:Work>
  </rdf:RDF>
 </metadata>
 <defs>
  <style type="text/css">*{stroke-linejoin: round; stroke-linecap: butt}</style>
 </defs>
 <g id="figure_1">
  <g id="patch_1">
   <path d="M 0 255.11811 
L 340.15748 255.11811 
L 340.15748 0 
L 0 0 
z
" style="fill: #ffffff"/>
  </g>
  <g id="axes_1">
   <g id="patch_2">
    <path d="M 49.95024 221.76162 
L 327.61349 221.76162 
L 327.61349 18.118365 
L 49.95024 18.118365 
z
" style="fill: #ffffff"/>
   </g>
   <g id="matplotlib.axis_1">
    <g id="xtick_1">
     <g id="line2d_1">
      <defs>
       <path id="m5cc736f7aa" d="M 0 0 
L 0 3.5 
" style="stroke: #000000"/>
      </defs>
      <g>
       <use xlink:href="#m5cc736f7aa" x="49.95024" y="221.76162" style="stroke: #000000"/>
      </g>
     </g>
     <g id="text_1">
      <!-- 0 -->
      <g transform="translate(46.76899 236.360058) scale(0.1 -0.1)">
       <defs>
        <path id="DejaVuSans-30" d="M 2034 4250 
Q 1547 4250 1301 3770 
Q 1056 3291 1056 2328 
Q 1056 1369 1301 889 
Q 1547 409 2034 409 
Q 2525 409 2770 889 
Q 3016 1369 3016 2328 
Q 3016 3291 2770 3770 
Q 2525 4250 2034 4250 
z
M 2034 4750 
Q 2819 4750 3233 4129 
Q 3647 3509 3647 2328 
Q 3647 1150 3233 529 
Q 2819 -91 2034 -91 
Q 1250 -91 836 529 
Q 422 1150 422 2328 
Q 422 3509 836 4129 
Q 1250 4750 2034 4750 
z
" transform="scale(0.015625)"/>
       </defs>
       <use xlink:href="#DejaVuSans-30"/>
      </g>
     </g>
    </g>
    <g id="xtick_2">
     <g id="line2d_2">
      <g>
       <use xlink:href="#m5cc736f7aa" x="105.48289" y="221.76162" style="stroke: #000000"/>
      </g>
     </g>
     <g id="text_2">
      <!-- 20 -->
      <g transform="translate(99.12039 236.360058) scale(0.1 -0.1)">
       <defs>
        <path id="DejaVuSans-32" d="M 1228 531 
L 3431 531 
L 3431 0 
L 469 0 
L 469 531 
Q 828 903 1448 1529 
Q 2069 2156 2228 2338 
Q 2531 2678 2651 2914 
Q 2772 3150 2772 3378 
Q 2772 3750 2511 3984 
Q 2250 4219 1831 4219 
Q 1534 4219 1204 4116 
Q 875 4013 500 3803 
L 500 4441 
Q 881 4594 1212 4672 
Q 1544 4750 1819 4750 
Q 2544 4750 2975 4387 
Q 3406 4025 3406 3419 
Q 3406 3131 3298 2873 
Q 3191 2616 2906 2266 
Q 2828 2175 2409 1742 
Q 1991 1309 1228 531 
z
" transform="scale(0.015625)"/>
       </defs>
       <use xlink:href="#DejaVuSans-32"/>
       <use xlink:href="#DejaVuSans-30" x="63.623047"/>
      </g>
     </g>
    </g>
    <g id="xtick_3">
     <g id="line2d_3">
      <g>
       <use xlink:href="#m5cc736f7aa" x="161.01554" y="221.76162" style="stroke: #000000"/>
      </g>
     </g>
     <g id="text_3">
      <!-- 40 -->
      <g transform="translate(154.65304 236.360058) scale(0.1 -0.1)">
       <defs>
        <path id="DejaVuSans-34" d="M 2419 4116 
L 825 1625 
L 2419 1625 
L 2419 4116 
z
M 2253 4666 
L 3047 4666 
L 3047 1625 
L 3713 1625 
L 3713 1100 
L 3047 1100 
L 3047 0 
L 2419 0 
L 2419 1100 
L 313 1100 
L 313 1709 
L 2253 4666 
z
" transform="scale(0.015625)"/>
       </defs>
       <use xlink:href="#DejaVuSans-34"/>
       <use xlink:href="#DejaVuSans-30" x="63.623047"/>
      </g>
     </g>
    </g>
    <g id="xtick_4">
     <g id="line2d_4">
      <g>
       <use xlink:href="#m5cc736f7aa" x="216.54819" y="221.76162" style="stroke: #000000"/>
      </g>
     </g>
     <g id="text_4">
      <!-- 60 -->
      <g transform="translate(210.18569 236.360058) scale(0.1 -0.1)">
       <defs>
        <path id="DejaVuSans-36" d="M 2113 2584 
Q 1688 2584 1439 2293 
Q 1191 2003 1191 1497 
Q 1191 994 1439 701 
Q 1688 409 2113 409 
Q 2538 409 2786 701 
Q 3034 994 3034 1497 
Q 3034 2003 2786 2293 
Q 2538 2584 2113 2584 
z
M 3366 4563 
L 3366 3988 
Q 3128 4100 2886 4159 
Q 2644 4219 2406 4219 
Q 1781 4219 1451 3797 
Q 1122 3375 1075 2522 
Q 1259 2794 1537 2939 
Q 1816 3084 2150 3084 
Q 2853 3084 3261 2657 
Q 3669 2231 3669 1497 
Q 3669 778 3244 343 
Q 2819 -91 2113 -91 
Q 1303 -91 875 529 
Q 447 1150 447 2328 
Q 447 3434 972 4092 
Q 1497 4750 2381 4750 
Q 2619 4750 2861 4703 
Q 3103 4656 3366 4563 
z
" transform="scale(0.015625)"/>
       </defs>
       <use xlink:href="#DejaVuSans-36"/>
       <use xlink:href="#DejaVuSans-30" x="63.623047"/>
      </g>
     </g>
    </g>
    <g id="xtick_5">
     <g id="line2d_5">
      <g>
       <use xlink:href="#m5cc736f7aa" x="272.08084" y="221.76162" style="stroke: #000000"/>
      </g>
     </g>
     <g id="text_5">
      <!-- 80 -->
      <g transform="translate(265.71834 236.360058) scale(0.1 -0.1)">
       <defs>
        <path id="DejaVuSans-38" d="M 2034 2216 
Q 1584 2216 1326 1975 
Q 1069 1734 1069 1313 
Q 1069 891 1326 650 
Q 1584 409 2034 409 
Q 2484 409 2743 651 
Q 3003 894 3003 1313 
Q 3003 1734 2745 1975 
Q 2488 2216 2034 2216 
z
M 1403 2484 
Q 997 2584 770 2862 
Q 544 3141 544 3541 
Q 544 4100 942 4425 
Q 1341 4750 2034 4750 
Q 2731 4750 3128 4425 
Q 3525 4100 3525 3541 
Q 3525 3141 3298 2862 
Q 3072 2584 2669 2484 
Q 3125 2378 3379 2068 
Q 3634 1759 3634 1313 
Q 3634 634 3220 271 
Q 2806 -91 2034 -91 
Q 1263 -91 848 271 
Q 434 634 434 1313 
Q 434 1759 690 2068 
Q 947 2378 1403 2484 
z
M 1172 3481 
Q 1172 3119 1398 2916 
Q 1625 2713 2034 2713 
Q 2441 2713 2670 2916 
Q 2900 3119 2900 3481 
Q 2900 3844 2670 4047 
Q 2441 4250 2034 4250 
Q 1625 4250 1398 4047 
Q 1172 3844 1172 3481 
z
" transform="scale(0.015625)"/>
       </defs>
       <use xlink:href="#DejaVuSans-38"/>
       <use xlink:href="#DejaVuSans-30" x="63.623047"/>
      </g>
     </g>
    </g>
    <g id="xtick_6">
     <g id="line2d_6">
      <g>
       <use xlink:href="#m5cc736f7aa" x="327.61349" y="221.76162" style="stroke: #000000"/>
      </g>
     </g>
     <g id="text_6">
      <!-- 100 -->
      <g transform="translate(318.06974 236.360058) scale(0.1 -0.1)">
       <defs>
        <path id="DejaVuSans-31" d="M 794 531 
L 1825 531 
L 1825 4091 
L 703 3866 
L 703 4441 
L 1819 4666 
L 2450 4666 
L 2450 531 
L 3481 531 
L 3481 0 
L 794 0 
L 794 531 
z
" transform="scale(0.015625)"/>
       </defs>
       <use xlink:href="#DejaVuSans-31"/>
       <use xlink:href="#DejaVuSans-30" x="63.623047"/>
       <use xlink:href="#DejaVuSans-30" x="127.246094"/>
      </g>
     </g>
    </g>
    <g id="text_7">
     <!-- $\mathrm{time\ (ns)}$ -->
     <g transform="translate(166.181865 250.038183) scale(0.1 -0.1)">
      <defs>
       <path id="DejaVuSans-74" d="M 1172 4494 
L 1172 3500 
L 2356 3500 
L 2356 3053 
L 1172 3053 
L 1172 1153 
Q 1172 725 1289 603 
Q 1406 481 1766 481 
L 2356 481 
L 2356 0 
L 1766 0 
Q 1100 0 847 248 
Q 594 497 594 1153 
L 594 3053 
L 172 3053 
L 172 3500 
L 594 3500 
L 594 4494 
L 1172 4494 
z
" transform="scale(0.015625)"/>
       <path id="DejaVuSans-69" d="M 603 3500 
L 1178 3500 
L 1178 0 
L 603 0 
L 603 3500 
z
M 603 4863 
L 1178 4863 
L 1178 4134 
L 603 4134 
L 603 4863 
z
" transform="scale(0.015625)"/>
       <path id="DejaVuSans-6d" d="M 3328 2828 
Q 3544 3216 3844 3400 
Q 4144 3584 4550 3584 
Q 5097 3584 5394 3201 
Q 5691 2819 5691 2113 
L 5691 0 
L 5113 0 
L 5113 2094 
Q 5113 2597 4934 2840 
Q 4756 3084 4391 3084 
Q 3944 3084 3684 2787 
Q 3425 2491 3425 1978 
L 3425 0 
L 2847 0 
L 2847 2094 
Q 2847 2600 2669 2842 
Q 2491 3084 2119 3084 
Q 1678 3084 1418 2786 
Q 1159 2488 1159 1978 
L 1159 0 
L 581 0 
L 581 3500 
L 1159 3500 
L 1159 2956 
Q 1356 3278 1631 3431 
Q 1906 3584 2284 3584 
Q 2666 3584 2933 3390 
Q 3200 3197 3328 2828 
z
" transform="scale(0.015625)"/>
       <path id="DejaVuSans-65" d="M 3597 1894 
L 3597 1613 
L 953 1613 
Q 991 1019 1311 708 
Q 1631 397 2203 397 
Q 2534 397 2845 478 
Q 3156 559 3463 722 
L 3463 178 
Q 3153 47 2828 -22 
Q 2503 -91 2169 -91 
Q 1331 -91 842 396 
Q 353 884 353 1716 
Q 353 2575 817 3079 
Q 1281 3584 2069 3584 
Q 2775 3584 3186 3129 
Q 3597 2675 3597 1894 
z
M 3022 2063 
Q 3016 2534 2758 2815 
Q 2500 3097 2075 3097 
Q 1594 3097 1305 2825 
Q 1016 2553 972 2059 
L 3022 2063 
z
" transform="scale(0.015625)"/>
       <path id="DejaVuSans-28" d="M 1984 4856 
Q 1566 4138 1362 3434 
Q 1159 2731 1159 2009 
Q 1159 1288 1364 580 
Q 1569 -128 1984 -844 
L 1484 -844 
Q 1016 -109 783 600 
Q 550 1309 550 2009 
Q 550 2706 781 3412 
Q 1013 4119 1484 4856 
L 1984 4856 
z
" transform="scale(0.015625)"/>
       <path id="DejaVuSans-6e" d="M 3513 2113 
L 3513 0 
L 2938 0 
L 2938 2094 
Q 2938 2591 2744 2837 
Q 2550 3084 2163 3084 
Q 1697 3084 1428 2787 
Q 1159 2491 1159 1978 
L 1159 0 
L 581 0 
L 581 3500 
L 1159 3500 
L 1159 2956 
Q 1366 3272 1645 3428 
Q 1925 3584 2291 3584 
Q 2894 3584 3203 3211 
Q 3513 2838 3513 2113 
z
" transform="scale(0.015625)"/>
       <path id="DejaVuSans-73" d="M 2834 3397 
L 2834 2853 
Q 2591 2978 2328 3040 
Q 2066 3103 1784 3103 
Q 1356 3103 1142 2972 
Q 928 2841 928 2578 
Q 928 2378 1081 2264 
Q 1234 2150 1697 2047 
L 1894 2003 
Q 2506 1872 2764 1633 
Q 3022 1394 3022 966 
Q 3022 478 2636 193 
Q 2250 -91 1575 -91 
Q 1294 -91 989 -36 
Q 684 19 347 128 
L 347 722 
Q 666 556 975 473 
Q 1284 391 1588 391 
Q 1994 391 2212 530 
Q 2431 669 2431 922 
Q 2431 1156 2273 1281 
Q 2116 1406 1581 1522 
L 1381 1569 
Q 847 1681 609 1914 
Q 372 2147 372 2553 
Q 372 3047 722 3315 
Q 1072 3584 1716 3584 
Q 2034 3584 2315 3537 
Q 2597 3491 2834 3397 
z
" transform="scale(0.015625)"/>
       <path id="DejaVuSans-29" d="M 513 4856 
L 1013 4856 
Q 1481 4119 1714 3412 
Q 1947 2706 1947 2009 
Q 1947 1309 1714 600 
Q 1481 -109 1013 -844 
L 513 -844 
Q 928 -128 1133 580 
Q 1338 1288 1338 2009 
Q 1338 2731 1133 3434 
Q 928 4138 513 4856 
z
" transform="scale(0.015625)"/>
      </defs>
      <use xlink:href="#DejaVuSans-74" transform="translate(0 0.015625)"/>
      <use xlink:href="#DejaVuSans-69" transform="translate(39.208984 0.015625)"/>
      <use xlink:href="#DejaVuSans-6d" transform="translate(66.992188 0.015625)"/>
      <use xlink:href="#DejaVuSans-65" transform="translate(164.404297 0.015625)"/>
      <use xlink:href="#DejaVuSans-28" transform="translate(258.398113 0.015625)"/>
      <use xlink:href="#DejaVuSans-6e" transform="translate(297.411785 0.015625)"/>
      <use xlink:href="#DejaVuSans-73" transform="translate(360.790691 0.015625)"/>
      <use xlink:href="#DejaVuSans-29" transform="translate(412.8903 0.015625)"/>
     </g>
    </g>
   </g>
   <g id="matplotlib.axis_2">
    <g id="ytick_1">
     <g id="line2d_7">
      <defs>
       <path id="mea1189abe6" d="M 0 0 
L -3.5 0 
" style="stroke: #000000"/>
      </defs>
      <g>
       <use xlink:href="#mea1189abe6" x="49.95024" y="221.76162" style="stroke: #000000"/>
      </g>
     </g>
     <g id="text_8">
      <!-- 0 -->
      <g transform="translate(36.58774 225.560839) scale(0.1 -0.1)">
       <use xlink:href="#DejaVuSans-30"/>
      </g>
     </g>
    </g>
    <g id="ytick_2">
     <g id="line2d_8">
      <g>
       <use xlink:href="#mea1189abe6" x="49.95024" y="198.620341" style="stroke: #000000"/>
      </g>
     </g>
     <g id="text_9">
      <!-- 250 -->
      <g transform="translate(23.86274 202.41956) scale(0.1 -0.1)">
       <defs>
        <path id="DejaVuSans-35" d="M 691 4666 
L 3169 4666 
L 3169 4134 
L 1269 4134 
L 1269 2991 
Q 1406 3038 1543 3061 
Q 1681 3084 1819 3084 
Q 2600 3084 3056 2656 
Q 3513 2228 3513 1497 
Q 3513 744 3044 326 
Q 2575 -91 1722 -91 
Q 1428 -91 1123 -41 
Q 819 9 494 109 
L 494 744 
Q 775 591 1075 516 
Q 1375 441 1709 441 
Q 2250 441 2565 725 
Q 2881 1009 2881 1497 
Q 2881 1984 2565 2268 
Q 2250 2553 1709 2553 
Q 1456 2553 1204 2497 
Q 953 2441 691 2322 
L 691 4666 
z
" transform="scale(0.015625)"/>
       </defs>
       <use xlink:href="#DejaVuSans-32"/>
       <use xlink:href="#DejaVuSans-35" x="63.623047"/>
       <use xlink:href="#DejaVuSans-30" x="127.246094"/>
      </g>
     </g>
    </g>
    <g id="ytick_3">
     <g id="line2d_9">
      <g>
       <use xlink:href="#mea1189abe6" x="49.95024" y="175.479062" style="stroke: #000000"/>
      </g>
     </g>
     <g id="text_10">
      <!-- 500 -->
      <g transform="translate(23.86274 179.278281) scale(0.1 -0.1)">
       <use xlink:href="#DejaVuSans-35"/>
       <use xlink:href="#DejaVuSans-30" x="63.623047"/>
       <use xlink:href="#DejaVuSans-30" x="127.246094"/>
      </g>
     </g>
    </g>
    <g id="ytick_4">
     <g id="line2d_10">
      <g>
       <use xlink:href="#mea1189abe6" x="49.95024" y="152.337783" style="stroke: #000000"/>
      </g>
     </g>
     <g id="text_11">
      <!-- 750 -->
      <g transform="translate(23.86274 156.137002) scale(0.1 -0.1)">
       <defs>
        <path id="DejaVuSans-37" d="M 525 4666 
L 3525 4666 
L 3525 4397 
L 1831 0 
L 1172 0 
L 2766 4134 
L 525 4134 
L 525 4666 
z
" transform="scale(0.015625)"/>
       </defs>
       <use xlink:href="#DejaVuSans-37"/>
       <use xlink:href="#DejaVuSans-35" x="63.623047"/>
       <use xlink:href="#DejaVuSans-30" x="127.246094"/>
      </g>
     </g>
    </g>
    <g id="ytick_5">
     <g id="line2d_11">
      <g>
       <use xlink:href="#mea1189abe6" x="49.95024" y="129.196504" style="stroke: #000000"/>
      </g>
     </g>
     <g id="text_12">
      <!-- 1000 -->
      <g transform="translate(17.50024 132.995723) scale(0.1 -0.1)">
       <use xlink:href="#DejaVuSans-31"/>
       <use xlink:href="#DejaVuSans-30" x="63.623047"/>
       <use xlink:href="#DejaVuSans-30" x="127.246094"/>
       <use xlink:href="#DejaVuSans-30" x="190.869141"/>
      </g>
     </g>
    </g>
    <g id="ytick_6">
     <g id="line2d_12">
      <g>
       <use xlink:href="#mea1189abe6" x="49.95024" y="106.055225" style="stroke: #000000"/>
      </g>
     </g>
     <g id="text_13">
      <!-- 1250 -->
      <g transform="translate(17.50024 109.854444) scale(0.1 -0.1)">
       <use xlink:href="#DejaVuSans-31"/>
       <use xlink:href="#DejaVuSans-32" x="63.623047"/>
       <use xlink:href="#DejaVuSans-35" x="127.246094"/>
       <use xlink:href="#DejaVuSans-30" x="190.869141"/>
      </g>
     </g>
    </g>
    <g id="ytick_7">
     <g id="line2d_13">
      <g>
       <use xlink:href="#mea1189abe6" x="49.95024" y="82.913946" style="stroke: #000000"/>
      </g>
     </g>
     <g id="text_14">
      <!-- 1500 -->
      <g transform="translate(17.50024 86.713165) scale(0.1 -0.1)">
       <use xlink:href="#DejaVuSans-31"/>
       <use xlink:href="#DejaVuSans-35" x="63.623047"/>
       <use xlink:href="#DejaVuSans-30" x="127.246094"/>
       <use xlink:href="#DejaVuSans-30" x="190.869141"/>
      </g>
     </g>
    </g>
    <g id="ytick_8">
     <g id="line2d_14">
      <g>
       <use xlink:href="#mea1189abe6" x="49.95024" y="59.772667" style="stroke: #000000"/>
      </g>
     </g>
     <g id="text_15">
      <!-- 1750 -->
      <g transform="translate(17.50024 63.571886) scale(0.1 -0.1)">
       <use xlink:href="#DejaVuSans-31"/>
       <use xlink:href="#DejaVuSans-37" x="63.623047"/>
       <use xlink:href="#DejaVuSans-35" x="127.246094"/>
       <use xlink:href="#DejaVuSans-30" x="190.869141"/>
      </g>
     </g>
    </g>
    <g id="ytick_9">
     <g id="line2d_15">
      <g>
       <use xlink:href="#mea1189abe6" x="49.95024" y="36.631388" style="stroke: #000000"/>
      </g>
     </g>
     <g id="text_16">
      <!-- 2000 -->
      <g transform="translate(17.50024 40.430607) scale(0.1 -0.1)">
       <use xlink:href="#DejaVuSans-32"/>
       <use xlink:href="#DejaVuSans-30" x="63.623047"/>
       <use xlink:href="#DejaVuSans-30" x="127.246094"/>
       <use xlink:href="#DejaVuSans-30" x="190.869141"/>
      </g>
     </g>
    </g>
    <g id="text_17">
     <!-- $\mathrm{MSD\ (nm)}^2$ -->
     <g transform="translate(11.420553 147.289993) rotate(-90) scale(0.1 -0.1)">
      <defs>
       <path id="DejaVuSans-4d" d="M 628 4666 
L 1569 4666 
L 2759 1491 
L 3956 4666 
L 4897 4666 
L 4897 0 
L 4281 0 
L 4281 4097 
L 3078 897 
L 2444 897 
L 1241 4097 
L 1241 0 
L 628 0 
L 628 4666 
z
" transform="scale(0.015625)"/>
       <path id="DejaVuSans-53" d="M 3425 4513 
L 3425 3897 
Q 3066 4069 2747 4153 
Q 2428 4238 2131 4238 
Q 1616 4238 1336 4038 
Q 1056 3838 1056 3469 
Q 1056 3159 1242 3001 
Q 1428 2844 1947 2747 
L 2328 2669 
Q 3034 2534 3370 2195 
Q 3706 1856 3706 1288 
Q 3706 609 3251 259 
Q 2797 -91 1919 -91 
Q 1588 -91 1214 -16 
Q 841 59 441 206 
L 441 856 
Q 825 641 1194 531 
Q 1563 422 1919 422 
Q 2459 422 2753 634 
Q 3047 847 3047 1241 
Q 3047 1584 2836 1778 
Q 2625 1972 2144 2069 
L 1759 2144 
Q 1053 2284 737 2584 
Q 422 2884 422 3419 
Q 422 4038 858 4394 
Q 1294 4750 2059 4750 
Q 2388 4750 2728 4690 
Q 3069 4631 3425 4513 
z
" transform="scale(0.015625)"/>
       <path id="DejaVuSans-44" d="M 1259 4147 
L 1259 519 
L 2022 519 
Q 2988 519 3436 956 
Q 3884 1394 3884 2338 
Q 3884 3275 3436 3711 
Q 2988 4147 2022 4147 
L 1259 4147 
z
M 628 4666 
L 1925 4666 
Q 3281 4666 3915 4102 
Q 4550 3538 4550 2338 
Q 4550 1131 3912 565 
Q 3275 0 1925 0 
L 628 0 
L 628 4666 
z
" transform="scale(0.015625)"/>
      </defs>
      <use xlink:href="#DejaVuSans-4d" transform="translate(0 0.765625)"/>
      <use xlink:href="#DejaVuSans-53" transform="translate(86.279297 0.765625)"/>
      <use xlink:href="#DejaVuSans-44" transform="translate(149.755859 0.765625)"/>
      <use xlink:href="#DejaVuSans-28" transform="translate(259.228191 0.765625)"/>
      <use xlink:href="#DejaVuSans-6e" transform="translate(298.241863 0.765625)"/>
      <use xlink:href="#DejaVuSans-6d" transform="translate(361.620769 0.765625)"/>
      <use xlink:href="#DejaVuSans-29" transform="translate(459.032878 0.765625)"/>
      <use xlink:href="#DejaVuSans-32" transform="translate(499.003582 39.046875) scale(0.7)"/>
     </g>
    </g>
   </g>
   <g id="line2d_16">
    <path d="M 49.95024 221.76162 
L 51.74957 220.796419 
L 65.344506 213.661289 
L 108.161892 191.150072 
L 146.803056 169.795023 
L 202.604495 141.362389 
L 225.151652 130.350003 
L 238.280096 123.439803 
L 242.956132 120.946529 
L 254.163069 115.491758 
L 262.948686 110.809854 
L 272.445149 105.458902 
L 278.342952 102.573073 
L 286.362188 98.998131 
L 295.247767 95.702872 
L 297.102632 95.145394 
L 300.257013 94.222794 
L 302.21184 93.77669 
L 305.899356 93.126432 
L 308.787169 92.670566 
L 310.197755 92.573518 
L 312.319187 92.403619 
L 313.907484 92.52667 
L 314.95154 92.535141 
L 316.728656 92.660064 
L 321.660152 93.469428 
L 322.426533 93.609333 
L 323.881547 93.824402 
L 324.259184 93.639075 
L 326.436151 92.659285 
L 326.76936 92.424369 
L 326.902644 92.258736 
L 327.346923 91.426232 
L 327.413565 91.486264 
L 327.446886 91.388757 
L 327.491314 91.236759 
L 327.580169 91.05637 
L 327.602383 91.214568 
L 327.61349 91.325277 
L 327.61349 91.325277 
" clip-path="url(#p316982f3bd)" style="fill: none; stroke-dasharray: 3.7,1.6; stroke-dashoffset: 0; stroke: #4077d7"/>
   </g>
   <g id="line2d_17">
    <path d="M 49.95024 221.76162 
L 51.949495 220.663448 
L 75.57403 207.896264 
L 110.283324 189.786724 
L 121.712401 183.459402 
L 129.109646 179.508634 
L 137.295486 175.138633 
L 162.652708 161.048616 
L 172.326883 155.435586 
L 178.580109 151.882178 
L 185.710787 147.849851 
L 197.017687 141.12062 
L 204.592643 136.458988 
L 210.490446 132.682547 
L 221.019858 125.41452 
L 225.207187 122.562872 
L 239.823966 113.189535 
L 265.825392 97.311841 
L 268.03568 96.101408 
L 273.611381 93.2339 
L 282.341463 88.26589 
L 287.195211 85.330939 
L 294.625777 81.494396 
L 297.869013 80.179012 
L 300.756826 78.914273 
L 306.254779 76.064147 
L 308.198499 75.068946 
L 312.341401 73.174344 
L 313.618703 72.339998 
L 317.661641 69.688286 
L 319.394329 68.952136 
L 322.570924 68.194554 
L 323.303984 67.542363 
L 323.892654 66.891833 
L 325.869695 64.764253 
L 326.191798 64.424108 
L 327.302495 63.247366 
L 327.580169 62.567993 
L 327.602383 62.670419 
L 327.61349 62.800351 
L 327.61349 62.800351 
" clip-path="url(#p316982f3bd)" style="fill: none; stroke: #4077d7; stroke-linecap: square"/>
   </g>
   <g id="line2d_18">
    <path d="M 49.95024 221.76162 
L 52.127207 220.572532 
L 67.932431 211.780643 
L 81.938326 203.704837 
L 101.331103 192.49418 
L 123.578373 179.541578 
L 138.195151 170.732646 
L 166.68454 153.602881 
L 176.92517 147.439058 
L 190.886637 138.849957 
L 197.384217 135.159663 
L 204.081722 131.685149 
L 225.251615 120.955042 
L 232.28233 117.584615 
L 245.75509 110.794073 
L 252.108279 107.47921 
L 257.695087 104.640983 
L 270.945707 97.058981 
L 281.819435 90.628706 
L 287.983806 86.654715 
L 290.382912 85.279398 
L 294.325888 82.992747 
L 297.247023 81.254774 
L 303.966742 78.205131 
L 310.697568 75.675101 
L 316.550944 73.905186 
L 318.428023 73.081451 
L 320.238459 71.854487 
L 321.560189 71.078091 
L 322.704208 70.621284 
L 323.492803 70.365212 
L 323.937082 70.138532 
L 324.925603 69.16702 
L 326.40283 66.577022 
L 327.035928 66.368379 
L 327.480207 65.88251 
L 327.502421 65.769146 
L 327.557955 65.913305 
L 327.591276 65.842805 
L 327.602383 65.840458 
L 327.61349 65.9312 
" clip-path="url(#p316982f3bd)" style="fill: none; stroke-dasharray: 3.7,1.6; stroke-dashoffset: 0; stroke: #4077d7"/>
   </g>
   <g id="line2d_19">
    <path d="M 49.95024 221.76162 
L 52.104993 220.572462 
L 75.285248 207.916103 
L 87.414064 201.290828 
L 109.305911 189.191684 
L 117.647248 184.613221 
L 133.285868 176.055993 
L 147.136265 168.414015 
L 166.562363 158.085346 
L 175.525691 153.658743 
L 181.456816 150.647085 
L 203.048774 139.164588 
L 211.923246 134.354001 
L 225.229401 127.373304 
L 261.138249 107.153442 
L 269.346303 103.209728 
L 275.37739 100.406294 
L 281.230766 97.719126 
L 285.906802 95.403391 
L 289.138931 93.655152 
L 292.748698 91.380144 
L 298.868641 87.312669 
L 302.467301 85.367927 
L 307.332155 83.640993 
L 311.497271 82.217654 
L 312.796787 81.795266 
L 314.151837 81.314941 
L 316.995223 80.066475 
L 318.305846 79.535734 
L 320.082962 79.29012 
L 321.271408 79.122008 
L 323.059631 78.629072 
L 323.959296 78.418083 
L 324.559072 78.108619 
L 325.125528 78.061448 
L 325.836374 77.823517 
L 326.347295 77.851476 
L 326.547221 77.993958 
L 327.402458 78.868525 
L 327.557955 79.104447 
L 327.569062 79.035877 
L 327.580169 79.022963 
L 327.602383 79.086178 
L 327.61349 79.079672 
" clip-path="url(#p316982f3bd)" style="fill: none; stroke: #4077d7; stroke-linecap: square"/>
   </g>
   <g id="line2d_20">
    <path d="M 49.95024 221.76162 
L 51.960602 220.678058 
L 91.490324 199.334206 
L 110.883101 188.943612 
L 128.509869 179.474685 
L 154.866719 165.54269 
L 165.684912 159.89407 
L 198.817016 142.792547 
L 211.534502 135.585343 
L 227.595187 125.99985 
L 244.466681 114.984456 
L 266.547346 101.306524 
L 275.48846 96.243295 
L 278.820552 94.640972 
L 281.997147 93.038458 
L 288.26148 89.730031 
L 290.516196 88.409706 
L 293.104121 86.885962 
L 294.692419 86.042605 
L 297.002669 84.899395 
L 299.046352 83.783186 
L 301.778668 82.405776 
L 304.244416 81.175146 
L 307.143337 79.58205 
L 309.031522 78.509718 
L 312.230331 76.947065 
L 313.985233 76.182086 
L 315.362498 75.559301 
L 316.78419 74.844002 
L 319.138869 73.538741 
L 320.571669 72.645996 
L 321.304729 72.314563 
L 322.215501 71.679387 
L 323.192915 70.977058 
L 323.626087 70.682663 
L 324.159221 70.348558 
L 325.047779 70.344636 
L 325.547593 70.278989 
L 326.358402 70.194981 
L 326.824895 70.505144 
L 327.035928 70.672555 
L 327.391351 71.184161 
L 327.580169 71.749249 
L 327.591276 71.60697 
L 327.602383 71.43392 
L 327.61349 71.448217 
" clip-path="url(#p316982f3bd)" style="fill: none; stroke-dasharray: 3.7,1.6; stroke-dashoffset: 0; stroke: #4077d7"/>
   </g>
   <g id="line2d_21">
    <path d="M 49.95024 221.76162 
L 51.905067 220.701142 
L 62.712153 214.977198 
L 78.36188 206.841106 
L 118.202597 186.651439 
L 147.036302 172.286105 
L 156.543872 167.819848 
L 198.372737 147.818603 
L 223.974313 136.027597 
L 234.126088 131.635639 
L 241.001305 128.396758 
L 247.754345 124.906435 
L 256.95092 120.019579 
L 260.43851 118.149342 
L 268.713206 113.544347 
L 274.910897 110.625832 
L 278.087492 109.064192 
L 281.408477 107.519212 
L 288.539155 104.906613 
L 291.304791 103.792599 
L 294.237033 102.634637 
L 310.464322 97.233265 
L 316.673121 95.862986 
L 317.794925 95.656708 
L 320.01632 95.616833 
L 321.11591 95.697989 
L 321.837864 95.661369 
L 322.248822 95.750566 
L 322.859705 95.882231 
L 323.548338 95.829213 
L 325.891909 94.988193 
L 326.191798 94.860815 
L 327.502421 94.586391 
L 327.580169 94.737947 
L 327.546848 94.560975 
L 327.61349 94.694468 
" clip-path="url(#p316982f3bd)" style="fill: none; stroke: #4077d7; stroke-linecap: square"/>
   </g>
   <g id="line2d_22">
    <path d="M 49.95024 221.76162 
L 51.793998 220.768757 
L 89.702101 200.745252 
L 113.060068 188.646468 
L 120.879378 184.860121 
L 133.952287 178.582606 
L 142.149234 174.410496 
L 152.711966 168.736503 
L 185.84407 150.785493 
L 196.19577 145.322774 
L 203.704085 141.489529 
L 224.596304 131.146525 
L 231.271595 127.722754 
L 237.036115 124.525601 
L 267.713578 107.010318 
L 273.478098 103.91909 
L 276.987901 101.918911 
L 284.229649 97.923682 
L 291.993424 92.975084 
L 298.257757 89.095854 
L 306.265886 84.508917 
L 308.12075 83.692746 
L 312.741252 81.382546 
L 314.373977 80.263167 
L 316.262163 78.7157 
L 321.438013 73.782467 
L 323.581659 72.284833 
L 324.070366 72.217108 
L 325.014458 72.235846 
L 325.92523 72.477298 
L 326.214012 72.46422 
L 327.047035 73.178087 
L 327.258067 73.415781 
L 327.502421 73.348638 
L 327.61349 72.58527 
L 327.61349 72.58527 
" clip-path="url(#p316982f3bd)" style="fill: none; stroke-dasharray: 3.7,1.6; stroke-dashoffset: 0; stroke: #4077d7"/>
   </g>
   <g id="line2d_23">
    <path d="M 49.95024 221.76162 
L 52.093886 220.578258 
L 68.721027 211.271625 
L 104.185595 191.275194 
L 122.278857 181.369107 
L 133.408045 175.380312 
L 164.04108 158.911341 
L 171.849283 154.989992 
L 195.329427 143.693806 
L 203.259806 140.163246 
L 209.302 137.594294 
L 220.6089 132.801555 
L 230.283075 128.352004 
L 245.977229 120.940088 
L 252.130493 117.701919 
L 261.049393 112.422528 
L 265.780964 109.639152 
L 270.534749 107.134852 
L 274.42219 105.421638 
L 278.798338 103.363592 
L 282.252607 101.872977 
L 285.773518 100.507675 
L 287.728346 99.790059 
L 293.814968 97.783808 
L 296.125218 96.997121 
L 301.767561 95.587631 
L 305.988211 94.461016 
L 308.987094 93.541917 
L 312.552433 92.472384 
L 314.751614 91.469972 
L 316.095558 90.584877 
L 325.30324 83.007354 
L 326.40283 82.0787 
L 326.547221 82.00227 
L 326.869323 81.674413 
L 327.091463 81.469563 
L 327.102569 81.478813 
L 327.302495 81.426902 
L 327.435779 81.288815 
L 327.513528 81.152361 
L 327.557955 81.22965 
L 327.602383 81.581895 
L 327.61349 81.482884 
" clip-path="url(#p316982f3bd)" style="fill: none; stroke: #4077d7; stroke-linecap: square"/>
   </g>
   <g id="line2d_24">
    <path d="M 49.95024 221.76162 
L 50.527803 221.458389 
L 66.033139 213.522952 
L 121.034875 186.535577 
L 135.862686 179.73406 
L 142.793438 176.499618 
L 154.633473 171.191134 
L 174.670454 162.92014 
L 178.46904 161.289172 
L 181.179141 160.039023 
L 193.219101 153.847901 
L 205.314596 147.315378 
L 210.568195 144.159964 
L 216.377143 140.621129 
L 219.953589 138.469435 
L 222.785867 136.951253 
L 227.395261 134.423618 
L 239.25751 127.396523 
L 243.578123 124.916736 
L 249.709173 121.097622 
L 253.629935 118.341978 
L 268.102322 107.46197 
L 273.489205 103.163066 
L 276.887939 100.68171 
L 279.009371 99.335831 
L 280.29778 98.531861 
L 283.740942 96.33524 
L 292.782019 91.37682 
L 295.036735 89.783694 
L 297.569125 88.050593 
L 303.555784 83.983043 
L 305.266258 82.736961 
L 306.776807 82.007986 
L 308.320676 81.540647 
L 309.620192 81.428015 
L 314.229586 81.757383 
L 315.673493 81.833053 
L 316.650907 82.01716 
L 319.527613 82.40818 
L 320.86045 81.855071 
L 322.759743 80.806393 
L 323.081845 80.88254 
L 323.459482 81.230048 
L 324.536858 82.454489 
L 325.025565 82.669672 
L 325.281026 82.752207 
L 325.44763 82.66711 
L 325.880802 82.098 
L 326.236226 81.165964 
L 326.658291 79.994432 
L 327.058142 78.685232 
L 327.258067 78.219831 
L 327.291388 78.208949 
L 327.313602 78.143502 
L 327.324709 78.157278 
L 327.413565 78.088258 
L 327.435779 78.130145 
L 327.4691 78.26268 
L 327.513528 78.048962 
L 327.535741 78.090583 
L 327.61349 77.27268 
L 327.569062 78.39844 
L 327.61349 77.27268 
" clip-path="url(#p316982f3bd)" style="fill: none; stroke-dasharray: 3.7,1.6; stroke-dashoffset: 0; stroke: #4077d7"/>
   </g>
   <g id="line2d_25">
    <path d="M 49.95024 221.76162 
L 50.527803 221.45856 
L 70.54257 211.301569 
L 80.283387 206.474656 
L 87.436278 202.57424 
L 98.676536 196.066917 
L 111.427343 188.327745 
L 117.580606 184.353414 
L 127.932307 177.577206 
L 132.408417 174.523085 
L 139.128137 169.923423 
L 158.165491 157.144176 
L 178.646751 142.570365 
L 185.688573 137.415536 
L 195.196143 130.05844 
L 203.348662 123.667829 
L 214.400101 114.832773 
L 218.498575 111.084886 
L 222.474872 107.120011 
L 237.82471 91.442528 
L 240.8347 88.154823 
L 247.021285 81.9111 
L 251.419647 77.872428 
L 257.695087 72.070259 
L 263.792816 65.757775 
L 267.402583 61.743965 
L 269.868331 59.130172 
L 271.589912 57.567023 
L 274.766507 54.736323 
L 279.264831 50.451005 
L 287.328495 43.45017 
L 291.837926 39.865836 
L 293.715005 38.568968 
L 296.347358 37.139252 
L 300.301441 35.022368 
L 301.712026 34.509048 
L 306.265886 32.91369 
L 308.309569 31.559859 
L 309.353625 30.942397 
L 310.786424 29.924271 
L 312.852321 28.442251 
L 314.262907 27.593583 
L 314.796042 27.299192 
L 315.79567 27.10858 
L 317.561679 26.771172 
L 318.10592 26.48965 
L 318.727911 26.263919 
L 319.316581 26.069245 
L 321.127017 25.57036 
L 321.360264 25.653079 
L 321.749008 25.876864 
L 322.315464 26.322303 
L 322.948561 26.875919 
L 325.19217 28.610247 
L 325.358775 28.661699 
L 326.102942 28.296412 
L 326.336188 28.489294 
L 326.613863 28.975627 
L 326.758253 29.408391 
L 327.13589 30.496657 
L 327.146997 30.466346 
L 327.302495 30.562168 
L 327.457993 31.081195 
L 327.480207 30.90148 
L 327.61349 29.656711 
L 327.61349 29.656711 
" clip-path="url(#p316982f3bd)" style="fill: none; stroke: #4077d7; stroke-linecap: square"/>
   </g>
   <g id="line2d_26">
    <path d="M 49.95024 221.76162 
L 50.516696 221.468781 
L 59.324526 216.871785 
L 81.48294 204.752127 
L 89.568817 200.390054 
L 96.788351 196.633355 
L 105.873856 192.204072 
L 111.149668 189.868103 
L 138.850462 178.101941 
L 153.045175 172.289867 
L 159.376151 169.281648 
L 180.101765 158.684202 
L 208.802186 144.358841 
L 214.255711 141.645541 
L 218.398612 139.444954 
L 244.666606 124.917122 
L 256.129004 118.81602 
L 259.138994 116.986949 
L 263.193039 114.967854 
L 267.980145 112.442651 
L 273.133781 109.398343 
L 277.054543 106.475308 
L 279.198189 104.824767 
L 281.097482 103.489574 
L 283.618765 101.538486 
L 286.462151 99.175828 
L 290.460661 95.875219 
L 294.714632 92.398887 
L 299.946017 87.952426 
L 301.800882 86.707235 
L 304.244416 85.429121 
L 305.255151 85.124499 
L 306.754593 84.915859 
L 307.831969 84.729805 
L 311.197382 84.182319 
L 313.729772 83.618794 
L 314.429512 83.654727 
L 316.773083 83.876575 
L 317.750497 84.144419 
L 319.016692 84.388578 
L 319.605362 84.209909 
L 321.404692 83.308823 
L 321.871185 83.394078 
L 322.359891 83.760646 
L 322.837491 84.208916 
L 323.070738 84.192623 
L 323.537231 84.140198 
L 324.203649 84.087428 
L 324.792319 83.860012 
L 324.947816 83.747131 
L 325.425416 83.453165 
L 326.047407 83.531908 
L 326.269546 83.554758 
L 326.902644 82.562327 
L 326.9915 82.696792 
L 327.180318 82.969967 
L 327.291388 83.372827 
L 327.513528 84.100325 
L 327.535741 84.191301 
L 327.61349 84.581654 
L 327.61349 84.581654 
" clip-path="url(#p316982f3bd)" style="fill: none; stroke-dasharray: 3.7,1.6; stroke-dashoffset: 0; stroke: #4077d7"/>
   </g>
   <g id="line2d_27">
    <path d="M 49.95024 221.76162 
L 50.527803 221.455591 
L 65.055725 213.942399 
L 94.766881 198.991459 
L 112.815714 190.113229 
L 119.068941 186.889238 
L 129.320678 181.690158 
L 136.484677 177.9506 
L 148.213642 172.291914 
L 155.022217 168.970848 
L 162.208429 165.674135 
L 165.196205 164.537719 
L 174.381673 161.466052 
L 183.278359 159.179626 
L 189.964758 157.965433 
L 199.4279 156.711231 
L 202.337927 156.320624 
L 208.657796 155.328701 
L 223.152397 152.530326 
L 245.16642 147.836189 
L 248.087554 147.192208 
L 258.328185 144.487539 
L 264.414807 142.751969 
L 268.690992 141.756361 
L 270.712461 141.117307 
L 277.443287 138.355627 
L 284.063044 135.253249 
L 286.173369 134.186035 
L 288.561369 132.946636 
L 290.371806 131.713186 
L 295.692046 127.434976 
L 301.745347 121.769756 
L 305.388435 118.491819 
L 307.13223 116.977723 
L 308.154071 116.066482 
L 312.607968 112.757305 
L 314.551689 111.676527 
L 317.772711 110.377467 
L 318.305846 110.252259 
L 319.238832 110.020028 
L 320.660524 109.393776 
L 321.937826 109.041146 
L 322.493175 109.077915 
L 323.826012 108.628855 
L 324.270291 108.41678 
L 324.71457 108.173301 
L 325.247705 107.901065 
L 325.92523 107.990433 
L 326.247332 108.027175 
L 326.602756 108.188832 
L 326.613863 108.168875 
L 326.747146 108.172016 
L 326.958179 108.171808 
L 327.191425 108.225495 
L 327.346923 108.478732 
L 327.35803 108.470005 
L 327.4691 108.437196 
L 327.391351 108.496995 
L 327.480207 108.448751 
L 327.502421 108.540247 
L 327.546848 108.453477 
L 327.602383 107.932839 
L 327.61349 108.319987 
" clip-path="url(#p316982f3bd)" style="fill: none; stroke: #4077d7; stroke-linecap: square"/>
   </g>
   <g id="line2d_28">
    <path d="M 49.95024 221.76162 
L 50.472268 221.488157 
L 73.086067 210.001296 
L 84.826139 204.550251 
L 114.759435 190.422757 
L 121.023768 187.246567 
L 129.420641 182.802006 
L 145.903391 173.607584 
L 152.84525 169.258692 
L 164.018866 162.071973 
L 174.948129 155.508 
L 180.312797 152.737182 
L 193.99659 145.935708 
L 197.306468 144.304116 
L 204.559322 141.095766 
L 210.757014 138.348232 
L 215.844008 135.867434 
L 221.008751 133.395518 
L 232.493362 127.914739 
L 240.956877 124.196694 
L 246.554792 121.765576 
L 254.529599 118.831157 
L 257.895013 117.759268 
L 261.893523 116.21503 
L 265.892034 114.699199 
L 269.657298 113.231114 
L 271.623233 112.226761 
L 279.82018 107.591006 
L 282.57471 106.345057 
L 285.062672 105.520848 
L 286.717611 105.008405 
L 288.96122 103.896478 
L 292.648735 102.111764 
L 294.092642 101.593801 
L 299.024138 100.14098 
L 301.134464 99.662794 
L 302.056342 99.254549 
L 303.933421 98.104453 
L 306.254779 96.527997 
L 307.143337 96.221463 
L 308.642778 96.097325 
L 310.131113 96.056607 
L 311.563912 96.011296 
L 313.851949 95.583102 
L 314.573902 95.622587 
L 315.873418 95.447059 
L 316.562051 95.372639 
L 317.328432 95.333038 
L 318.172562 95.207447 
L 319.527613 94.078643 
L 320.12739 93.488402 
L 321.571296 92.034551 
L 321.937826 91.719212 
L 322.370998 91.331749 
L 322.77085 91.063885 
L 322.992989 90.968638 
L 323.326198 90.655667 
L 323.692728 90.476725 
L 324.037045 90.259933 
L 324.71457 89.678617 
L 325.0811 89.585039 
L 325.358775 89.420871 
L 326.280653 88.846576 
L 326.413937 88.997729 
L 326.647184 89.139641 
L 326.802681 89.230229 
L 326.935965 89.377988 
L 326.958179 89.368814 
L 327.080356 89.413711 
L 327.402458 90.142263 
L 327.491314 90.089226 
L 327.502421 90.006592 
L 327.569062 90.308689 
L 327.61349 91.587752 
L 327.61349 91.587752 
" clip-path="url(#p316982f3bd)" style="fill: none; stroke-dasharray: 3.7,1.6; stroke-dashoffset: 0; stroke: #4077d7"/>
   </g>
   <g id="line2d_29">
    <path d="M 49.95024 221.76162 
L 50.494482 221.473025 
L 67.987966 212.483393 
L 80.661024 206.498094 
L 87.003106 203.601602 
L 99.809448 197.845496 
L 109.128199 193.927721 
L 112.726859 192.538678 
L 127.065963 187.248585 
L 133.408045 184.701501 
L 140.572043 181.670722 
L 148.213642 178.142006 
L 153.345064 175.968503 
L 166.640112 170.542615 
L 171.049581 168.740214 
L 177.014026 166.250212 
L 184.244666 163.000116 
L 189.742618 160.300532 
L 195.051752 157.754635 
L 205.881052 152.976253 
L 211.234614 150.583091 
L 219.242742 146.776642 
L 224.451913 144.309369 
L 227.117587 143.263208 
L 238.224561 139.132827 
L 241.756579 137.898046 
L 245.621806 136.565206 
L 251.597358 134.31204 
L 254.429637 132.99581 
L 260.07198 130.090214 
L 262.615477 128.432486 
L 265.258937 126.440892 
L 268.946452 123.576674 
L 271.623233 121.837501 
L 273.600274 120.730548 
L 276.932367 119.036058 
L 278.75391 118.355287 
L 280.153389 117.726718 
L 285.562486 115.116855 
L 287.128569 114.475061 
L 291.138187 112.645055 
L 298.302185 109.022174 
L 299.42399 108.438218 
L 303.267003 106.272891 
L 305.710537 105.292034 
L 307.565402 104.51438 
L 308.487281 104.269472 
L 309.697941 104.090222 
L 310.753103 104.022275 
L 314.462833 103.474423 
L 315.306963 103.037291 
L 316.217735 102.396794 
L 316.950795 101.711482 
L 319.683111 99.280012 
L 321.22698 98.229315 
L 323.215128 97.514611 
L 324.048152 96.293464 
L 324.647928 94.904837 
L 325.169956 93.450198 
L 325.647556 92.618107 
L 325.791947 92.475033 
L 326.125156 92.318158 
L 326.280653 92.276524 
L 326.580542 91.971461 
L 326.736039 91.72571 
L 326.780467 91.744339 
L 326.891537 91.867951 
L 327.080356 92.024234 
L 327.446886 91.745931 
L 327.502421 91.587809 
L 327.557955 91.733006 
L 327.61349 92.916623 
L 327.61349 92.916623 
" clip-path="url(#p316982f3bd)" style="fill: none; stroke: #4077d7; stroke-linecap: square"/>
   </g>
   <g id="line2d_30">
    <path d="M 49.95024 221.76162 
L 50.527803 221.460408 
L 60.912824 216.196518 
L 70.209361 211.645272 
L 80.916484 206.477618 
L 91.179329 201.51068 
L 101.853131 195.788501 
L 107.695399 192.652253 
L 116.536551 188.211651 
L 129.120753 182.21223 
L 134.640919 179.630578 
L 153.134031 170.784066 
L 162.985917 166.033343 
L 182.94515 157.366482 
L 199.239081 149.898499 
L 203.748513 147.810932 
L 207.236103 146.239572 
L 211.35679 144.422234 
L 214.355673 142.967554 
L 218.343077 140.809797 
L 230.349716 134.267809 
L 235.40339 131.249559 
L 239.102012 128.908946 
L 246.799145 123.586796 
L 250.986475 120.101451 
L 254.351888 117.373673 
L 257.550696 115.153317 
L 264.959048 109.619005 
L 267.213764 107.774194 
L 271.134526 104.856187 
L 275.277427 101.941082 
L 278.842766 99.085398 
L 281.541761 97.260132 
L 284.218542 95.216301 
L 292.148921 88.816283 
L 294.425851 87.202588 
L 297.757943 84.797481 
L 299.013032 83.595303 
L 300.545794 82.373668 
L 302.744975 80.709602 
L 305.22183 78.436513 
L 307.254406 76.564977 
L 308.220713 75.76322 
L 310.053364 74.523541 
L 311.919336 73.735907 
L 312.918963 73.387479 
L 316.52873 72.515264 
L 317.317325 72.334485 
L 319.816394 71.365975 
L 320.260673 71.333893 
L 321.271408 71.143557 
L 322.271036 70.842352 
L 322.959668 70.302236 
L 323.315091 70.035732 
L 323.570552 69.965371 
L 324.392468 70.394499 
L 324.758998 70.703265 
L 325.092207 70.8571 
L 325.825267 71.856132 
L 326.125156 72.252608 
L 326.29176 72.364366 
L 326.647184 73.335477 
L 326.88043 74.516098 
L 327.280281 76.490108 
L 327.424672 77.093453 
L 327.546848 78.136707 
L 327.591276 78.043345 
L 327.61349 77.287392 
L 327.61349 77.287392 
" clip-path="url(#p316982f3bd)" style="fill: none; stroke-dasharray: 3.7,1.6; stroke-dashoffset: 0; stroke: #4077d7"/>
   </g>
   <g id="line2d_31">
    <path d="M 49.95024 221.76162 
L 50.494482 221.471795 
L 58.846926 217.194956 
L 79.028299 206.920021 
L 87.98052 201.980104 
L 129.476176 179.080115 
L 139.105923 173.380262 
L 159.498327 161.222468 
L 168.350586 155.787596 
L 173.815217 152.300827 
L 185.599717 145.137148 
L 196.317947 138.602798 
L 200.816272 135.602875 
L 204.192792 133.392597 
L 213.222762 127.633998 
L 224.607411 120.146166 
L 230.305289 116.343507 
L 234.19273 113.874886 
L 237.369324 112.052623 
L 239.823966 110.833598 
L 256.10679 104.024931 
L 265.481076 100.836961 
L 270.979028 99.558964 
L 276.488088 98.657501 
L 278.620627 98.362987 
L 281.786114 97.746622 
L 284.662821 97.144313 
L 289.783136 96.155802 
L 292.626521 95.823432 
L 294.237033 95.541431 
L 297.002669 94.641262 
L 298.191115 94.109475 
L 299.512845 93.421166 
L 302.300696 91.870033 
L 304.222202 90.852467 
L 309.275876 87.801336 
L 310.153327 87.274873 
L 311.71941 86.230094 
L 314.296228 85.05528 
L 315.162572 84.617138 
L 317.139614 83.392051 
L 317.694962 83.044914 
L 318.294739 82.666963 
L 318.872302 82.329322 
L 319.916357 81.697039 
L 320.460599 81.347879 
L 321.326943 81.241513 
L 322.970775 81.400755 
L 323.348412 81.205968 
L 324.092579 80.931208 
L 324.903389 79.999285 
L 325.614235 79.130442 
L 325.969658 78.947573 
L 326.158477 78.97063 
L 326.413937 78.797634 
L 326.713825 78.091834 
L 327.091463 77.219001 
L 327.280281 76.951826 
L 327.491314 76.127056 
L 327.502421 76.266396 
L 327.580169 76.962423 
L 327.602383 76.533403 
L 327.61349 75.924867 
L 327.61349 75.924867 
" clip-path="url(#p316982f3bd)" style="fill: none; stroke: #4077d7; stroke-linecap: square"/>
   </g>
   <g id="patch_3">
    <path d="M 49.95024 221.76162 
L 49.95024 18.118365 
" style="fill: none; stroke: #000000; stroke-linejoin: miter; stroke-linecap: square"/>
   </g>
   <g id="patch_4">
    <path d="M 327.61349 221.76162 
L 327.61349 18.118365 
" style="fill: none; stroke: #000000; stroke-linejoin: miter; stroke-linecap: square"/>
   </g>
   <g id="patch_5">
    <path d="M 49.95024 221.76162 
L 327.61349 221.76162 
" style="fill: none; stroke: #000000; stroke-linejoin: miter; stroke-linecap: square"/>
   </g>
   <g id="patch_6">
    <path d="M 49.95024 18.118365 
L 327.61349 18.118365 
" style="fill: none; stroke: #000000; stroke-linejoin: miter; stroke-linecap: square"/>
   </g>
   <g id="text_18">
    <!-- box: 3.5 nm -->
    <g transform="translate(152.914053 12.118365) scale(0.12 -0.12)">
     <defs>
      <path id="DejaVuSans-62" d="M 3116 1747 
Q 3116 2381 2855 2742 
Q 2594 3103 2138 3103 
Q 1681 3103 1420 2742 
Q 1159 2381 1159 1747 
Q 1159 1113 1420 752 
Q 1681 391 2138 391 
Q 2594 391 2855 752 
Q 3116 1113 3116 1747 
z
M 1159 2969 
Q 1341 3281 1617 3432 
Q 1894 3584 2278 3584 
Q 2916 3584 3314 3078 
Q 3713 2572 3713 1747 
Q 3713 922 3314 415 
Q 2916 -91 2278 -91 
Q 1894 -91 1617 61 
Q 1341 213 1159 525 
L 1159 0 
L 581 0 
L 581 4863 
L 1159 4863 
L 1159 2969 
z
" transform="scale(0.015625)"/>
      <path id="DejaVuSans-6f" d="M 1959 3097 
Q 1497 3097 1228 2736 
Q 959 2375 959 1747 
Q 959 1119 1226 758 
Q 1494 397 1959 397 
Q 2419 397 2687 759 
Q 2956 1122 2956 1747 
Q 2956 2369 2687 2733 
Q 2419 3097 1959 3097 
z
M 1959 3584 
Q 2709 3584 3137 3096 
Q 3566 2609 3566 1747 
Q 3566 888 3137 398 
Q 2709 -91 1959 -91 
Q 1206 -91 779 398 
Q 353 888 353 1747 
Q 353 2609 779 3096 
Q 1206 3584 1959 3584 
z
" transform="scale(0.015625)"/>
      <path id="DejaVuSans-78" d="M 3513 3500 
L 2247 1797 
L 3578 0 
L 2900 0 
L 1881 1375 
L 863 0 
L 184 0 
L 1544 1831 
L 300 3500 
L 978 3500 
L 1906 2253 
L 2834 3500 
L 3513 3500 
z
" transform="scale(0.015625)"/>
      <path id="DejaVuSans-3a" d="M 750 794 
L 1409 794 
L 1409 0 
L 750 0 
L 750 794 
z
M 750 3309 
L 1409 3309 
L 1409 2516 
L 750 2516 
L 750 3309 
z
" transform="scale(0.015625)"/>
      <path id="DejaVuSans-20" transform="scale(0.015625)"/>
      <path id="DejaVuSans-33" d="M 2597 2516 
Q 3050 2419 3304 2112 
Q 3559 1806 3559 1356 
Q 3559 666 3084 287 
Q 2609 -91 1734 -91 
Q 1441 -91 1130 -33 
Q 819 25 488 141 
L 488 750 
Q 750 597 1062 519 
Q 1375 441 1716 441 
Q 2309 441 2620 675 
Q 2931 909 2931 1356 
Q 2931 1769 2642 2001 
Q 2353 2234 1838 2234 
L 1294 2234 
L 1294 2753 
L 1863 2753 
Q 2328 2753 2575 2939 
Q 2822 3125 2822 3475 
Q 2822 3834 2567 4026 
Q 2313 4219 1838 4219 
Q 1578 4219 1281 4162 
Q 984 4106 628 3988 
L 628 4550 
Q 988 4650 1302 4700 
Q 1616 4750 1894 4750 
Q 2613 4750 3031 4423 
Q 3450 4097 3450 3541 
Q 3450 3153 3228 2886 
Q 3006 2619 2597 2516 
z
" transform="scale(0.015625)"/>
      <path id="DejaVuSans-2e" d="M 684 794 
L 1344 794 
L 1344 0 
L 684 0 
L 684 794 
z
" transform="scale(0.015625)"/>
     </defs>
     <use xlink:href="#DejaVuSans-62"/>
     <use xlink:href="#DejaVuSans-6f" x="63.476562"/>
     <use xlink:href="#DejaVuSans-78" x="121.533203"/>
     <use xlink:href="#DejaVuSans-3a" x="180.712891"/>
     <use xlink:href="#DejaVuSans-20" x="214.404297"/>
     <use xlink:href="#DejaVuSans-33" x="246.191406"/>
     <use xlink:href="#DejaVuSans-2e" x="309.814453"/>
     <use xlink:href="#DejaVuSans-35" x="341.601562"/>
     <use xlink:href="#DejaVuSans-20" x="405.224609"/>
     <use xlink:href="#DejaVuSans-6e" x="437.011719"/>
     <use xlink:href="#DejaVuSans-6d" x="500.390625"/>
    </g>
   </g>
   <g id="legend_1">
    <g id="patch_7">
     <path d="M 56.95024 55.474615 
L 107.75024 55.474615 
Q 109.75024 55.474615 109.75024 53.474615 
L 109.75024 25.118365 
Q 109.75024 23.118365 107.75024 23.118365 
L 56.95024 23.118365 
Q 54.95024 23.118365 54.95024 25.118365 
L 54.95024 53.474615 
Q 54.95024 55.474615 56.95024 55.474615 
z
" style="fill: #ffffff; opacity: 0.8; stroke: #cccccc; stroke-linejoin: miter"/>
    </g>
    <g id="line2d_32">
     <path d="M 58.95024 31.216803 
L 68.95024 31.216803 
L 78.95024 31.216803 
" style="fill: none; stroke-dasharray: 3.7,1.6; stroke-dashoffset: 0; stroke: #4077d7"/>
    </g>
    <g id="text_19">
     <!-- $\mathrm{Cl}^-$ -->
     <g transform="translate(86.95024 34.716803) scale(0.1 -0.1)">
      <defs>
       <path id="DejaVuSans-43" d="M 4122 4306 
L 4122 3641 
Q 3803 3938 3442 4084 
Q 3081 4231 2675 4231 
Q 1875 4231 1450 3742 
Q 1025 3253 1025 2328 
Q 1025 1406 1450 917 
Q 1875 428 2675 428 
Q 3081 428 3442 575 
Q 3803 722 4122 1019 
L 4122 359 
Q 3791 134 3420 21 
Q 3050 -91 2638 -91 
Q 1578 -91 968 557 
Q 359 1206 359 2328 
Q 359 3453 968 4101 
Q 1578 4750 2638 4750 
Q 3056 4750 3426 4639 
Q 3797 4528 4122 4306 
z
" transform="scale(0.015625)"/>
       <path id="DejaVuSans-6c" d="M 603 4863 
L 1178 4863 
L 1178 0 
L 603 0 
L 603 4863 
z
" transform="scale(0.015625)"/>
       <path id="DejaVuSans-2212" d="M 678 2272 
L 4684 2272 
L 4684 1741 
L 678 1741 
L 678 2272 
z
" transform="scale(0.015625)"/>
      </defs>
      <use xlink:href="#DejaVuSans-43" transform="translate(0 0.015625)"/>
      <use xlink:href="#DejaVuSans-6c" transform="translate(69.824219 0.015625)"/>
      <use xlink:href="#DejaVuSans-2212" transform="translate(112.202148 38.296875) scale(0.7)"/>
     </g>
    </g>
    <g id="line2d_33">
     <path d="M 58.95024 45.894927 
L 68.95024 45.894927 
L 78.95024 45.894927 
" style="fill: none; stroke: #4077d7; stroke-linecap: square"/>
    </g>
    <g id="text_20">
     <!-- $\mathrm{K}^+$ -->
     <g transform="translate(86.95024 49.394927) scale(0.1 -0.1)">
      <defs>
       <path id="DejaVuSans-4b" d="M 628 4666 
L 1259 4666 
L 1259 2694 
L 3353 4666 
L 4166 4666 
L 1850 2491 
L 4331 0 
L 3500 0 
L 1259 2247 
L 1259 0 
L 628 0 
L 628 4666 
z
" transform="scale(0.015625)"/>
       <path id="DejaVuSans-2b" d="M 2944 4013 
L 2944 2272 
L 4684 2272 
L 4684 1741 
L 2944 1741 
L 2944 0 
L 2419 0 
L 2419 1741 
L 678 1741 
L 678 2272 
L 2419 2272 
L 2419 4013 
L 2944 4013 
z
" transform="scale(0.015625)"/>
      </defs>
      <use xlink:href="#DejaVuSans-4b" transform="translate(0 0.826562)"/>
      <use xlink:href="#DejaVuSans-2b" transform="translate(80.170898 39.107812) scale(0.7)"/>
     </g>
    </g>
   </g>
  </g>
 </g>
 <defs>
  <clipPath id="p316982f3bd">
   <rect x="49.95024" y="18.118365" width="277.66325" height="203.643255"/>
  </clipPath>
 </defs>
</svg>
