<?xml version="1.0" encoding="utf-8" standalone="no"?>
<!DOCTYPE svg PUBLIC "-//W3C//DTD SVG 1.1//EN"
  "http://www.w3.org/Graphics/SVG/1.1/DTD/svg11.dtd">
<svg xmlns:xlink="http://www.w3.org/1999/xlink" width="340.15748pt" height="255.11811pt" viewBox="0 0 340.15748 255.11811" xmlns="http://www.w3.org/2000/svg" version="1.1">
 <metadata>
  <rdf:RDF xmlns:dc="http://purl.org/dc/elements/1.1/" xmlns:cc="http://creativecommons.org/ns#" xmlns:rdf="http://www.w3.org/1999/02/22-rdf-syntax-ns#">
   <cc:Work>
    <dc:type rdf:resource="http://purl.org/dc/dcmitype/StillImage"/>
    <dc:date>2023-04-06T15:01:44.157845</dc:date>
    <dc:format>image/svg+xml</dc:format>
    <dc:creator>
     <cc:Agent>
      <dc:title>Matplotlib v3.6.2, https://matplotlib.org/</dc:title>
     </cc:Agent>
    </dc:creator>
   </cc:Work>
  </rdf:RDF>
 </metadata>
 <defs>
  <style type="text/css">*{stroke-linejoin: round; stroke-linecap: butt}</style>
 </defs>
 <g id="figure_1">
  <g id="patch_1">
   <path d="M 0 255.11811 
L 340.15748 255.11811 
L 340.15748 0 
L 0 0 
z
" style="fill: #ffffff"/>
  </g>
  <g id="axes_1">
   <g id="patch_2">
    <path d="M 49.95024 221.76162 
L 327.61349 221.76162 
L 327.61349 18.118365 
L 49.95024 18.118365 
z
" style="fill: #ffffff"/>
   </g>
   <g id="matplotlib.axis_1">
    <g id="xtick_1">
     <g id="line2d_1">
      <defs>
       <path id="m3062c0cb7a" d="M 0 0 
L 0 3.5 
" style="stroke: #000000"/>
      </defs>
      <g>
       <use xlink:href="#m3062c0cb7a" x="49.95024" y="221.76162" style="stroke: #000000"/>
      </g>
     </g>
     <g id="text_1">
      <!-- 0 -->
      <g transform="translate(46.76899 236.360058) scale(0.1 -0.1)">
       <defs>
        <path id="DejaVuSans-30" d="M 2034 4250 
Q 1547 4250 1301 3770 
Q 1056 3291 1056 2328 
Q 1056 1369 1301 889 
Q 1547 409 2034 409 
Q 2525 409 2770 889 
Q 3016 1369 3016 2328 
Q 3016 3291 2770 3770 
Q 2525 4250 2034 4250 
z
M 2034 4750 
Q 2819 4750 3233 4129 
Q 3647 3509 3647 2328 
Q 3647 1150 3233 529 
Q 2819 -91 2034 -91 
Q 1250 -91 836 529 
Q 422 1150 422 2328 
Q 422 3509 836 4129 
Q 1250 4750 2034 4750 
z
" transform="scale(0.015625)"/>
       </defs>
       <use xlink:href="#DejaVuSans-30"/>
      </g>
     </g>
    </g>
    <g id="xtick_2">
     <g id="line2d_2">
      <g>
       <use xlink:href="#m3062c0cb7a" x="105.48289" y="221.76162" style="stroke: #000000"/>
      </g>
     </g>
     <g id="text_2">
      <!-- 20 -->
      <g transform="translate(99.12039 236.360058) scale(0.1 -0.1)">
       <defs>
        <path id="DejaVuSans-32" d="M 1228 531 
L 3431 531 
L 3431 0 
L 469 0 
L 469 531 
Q 828 903 1448 1529 
Q 2069 2156 2228 2338 
Q 2531 2678 2651 2914 
Q 2772 3150 2772 3378 
Q 2772 3750 2511 3984 
Q 2250 4219 1831 4219 
Q 1534 4219 1204 4116 
Q 875 4013 500 3803 
L 500 4441 
Q 881 4594 1212 4672 
Q 1544 4750 1819 4750 
Q 2544 4750 2975 4387 
Q 3406 4025 3406 3419 
Q 3406 3131 3298 2873 
Q 3191 2616 2906 2266 
Q 2828 2175 2409 1742 
Q 1991 1309 1228 531 
z
" transform="scale(0.015625)"/>
       </defs>
       <use xlink:href="#DejaVuSans-32"/>
       <use xlink:href="#DejaVuSans-30" x="63.623047"/>
      </g>
     </g>
    </g>
    <g id="xtick_3">
     <g id="line2d_3">
      <g>
       <use xlink:href="#m3062c0cb7a" x="161.01554" y="221.76162" style="stroke: #000000"/>
      </g>
     </g>
     <g id="text_3">
      <!-- 40 -->
      <g transform="translate(154.65304 236.360058) scale(0.1 -0.1)">
       <defs>
        <path id="DejaVuSans-34" d="M 2419 4116 
L 825 1625 
L 2419 1625 
L 2419 4116 
z
M 2253 4666 
L 3047 4666 
L 3047 1625 
L 3713 1625 
L 3713 1100 
L 3047 1100 
L 3047 0 
L 2419 0 
L 2419 1100 
L 313 1100 
L 313 1709 
L 2253 4666 
z
" transform="scale(0.015625)"/>
       </defs>
       <use xlink:href="#DejaVuSans-34"/>
       <use xlink:href="#DejaVuSans-30" x="63.623047"/>
      </g>
     </g>
    </g>
    <g id="xtick_4">
     <g id="line2d_4">
      <g>
       <use xlink:href="#m3062c0cb7a" x="216.54819" y="221.76162" style="stroke: #000000"/>
      </g>
     </g>
     <g id="text_4">
      <!-- 60 -->
      <g transform="translate(210.18569 236.360058) scale(0.1 -0.1)">
       <defs>
        <path id="DejaVuSans-36" d="M 2113 2584 
Q 1688 2584 1439 2293 
Q 1191 2003 1191 1497 
Q 1191 994 1439 701 
Q 1688 409 2113 409 
Q 2538 409 2786 701 
Q 3034 994 3034 1497 
Q 3034 2003 2786 2293 
Q 2538 2584 2113 2584 
z
M 3366 4563 
L 3366 3988 
Q 3128 4100 2886 4159 
Q 2644 4219 2406 4219 
Q 1781 4219 1451 3797 
Q 1122 3375 1075 2522 
Q 1259 2794 1537 2939 
Q 1816 3084 2150 3084 
Q 2853 3084 3261 2657 
Q 3669 2231 3669 1497 
Q 3669 778 3244 343 
Q 2819 -91 2113 -91 
Q 1303 -91 875 529 
Q 447 1150 447 2328 
Q 447 3434 972 4092 
Q 1497 4750 2381 4750 
Q 2619 4750 2861 4703 
Q 3103 4656 3366 4563 
z
" transform="scale(0.015625)"/>
       </defs>
       <use xlink:href="#DejaVuSans-36"/>
       <use xlink:href="#DejaVuSans-30" x="63.623047"/>
      </g>
     </g>
    </g>
    <g id="xtick_5">
     <g id="line2d_5">
      <g>
       <use xlink:href="#m3062c0cb7a" x="272.08084" y="221.76162" style="stroke: #000000"/>
      </g>
     </g>
     <g id="text_5">
      <!-- 80 -->
      <g transform="translate(265.71834 236.360058) scale(0.1 -0.1)">
       <defs>
        <path id="DejaVuSans-38" d="M 2034 2216 
Q 1584 2216 1326 1975 
Q 1069 1734 1069 1313 
Q 1069 891 1326 650 
Q 1584 409 2034 409 
Q 2484 409 2743 651 
Q 3003 894 3003 1313 
Q 3003 1734 2745 1975 
Q 2488 2216 2034 2216 
z
M 1403 2484 
Q 997 2584 770 2862 
Q 544 3141 544 3541 
Q 544 4100 942 4425 
Q 1341 4750 2034 4750 
Q 2731 4750 3128 4425 
Q 3525 4100 3525 3541 
Q 3525 3141 3298 2862 
Q 3072 2584 2669 2484 
Q 3125 2378 3379 2068 
Q 3634 1759 3634 1313 
Q 3634 634 3220 271 
Q 2806 -91 2034 -91 
Q 1263 -91 848 271 
Q 434 634 434 1313 
Q 434 1759 690 2068 
Q 947 2378 1403 2484 
z
M 1172 3481 
Q 1172 3119 1398 2916 
Q 1625 2713 2034 2713 
Q 2441 2713 2670 2916 
Q 2900 3119 2900 3481 
Q 2900 3844 2670 4047 
Q 2441 4250 2034 4250 
Q 1625 4250 1398 4047 
Q 1172 3844 1172 3481 
z
" transform="scale(0.015625)"/>
       </defs>
       <use xlink:href="#DejaVuSans-38"/>
       <use xlink:href="#DejaVuSans-30" x="63.623047"/>
      </g>
     </g>
    </g>
    <g id="xtick_6">
     <g id="line2d_6">
      <g>
       <use xlink:href="#m3062c0cb7a" x="327.61349" y="221.76162" style="stroke: #000000"/>
      </g>
     </g>
     <g id="text_6">
      <!-- 100 -->
      <g transform="translate(318.06974 236.360058) scale(0.1 -0.1)">
       <defs>
        <path id="DejaVuSans-31" d="M 794 531 
L 1825 531 
L 1825 4091 
L 703 3866 
L 703 4441 
L 1819 4666 
L 2450 4666 
L 2450 531 
L 3481 531 
L 3481 0 
L 794 0 
L 794 531 
z
" transform="scale(0.015625)"/>
       </defs>
       <use xlink:href="#DejaVuSans-31"/>
       <use xlink:href="#DejaVuSans-30" x="63.623047"/>
       <use xlink:href="#DejaVuSans-30" x="127.246094"/>
      </g>
     </g>
    </g>
    <g id="text_7">
     <!-- $\mathrm{time\ (ns)}$ -->
     <g transform="translate(166.181865 250.038183) scale(0.1 -0.1)">
      <defs>
       <path id="DejaVuSans-74" d="M 1172 4494 
L 1172 3500 
L 2356 3500 
L 2356 3053 
L 1172 3053 
L 1172 1153 
Q 1172 725 1289 603 
Q 1406 481 1766 481 
L 2356 481 
L 2356 0 
L 1766 0 
Q 1100 0 847 248 
Q 594 497 594 1153 
L 594 3053 
L 172 3053 
L 172 3500 
L 594 3500 
L 594 4494 
L 1172 4494 
z
" transform="scale(0.015625)"/>
       <path id="DejaVuSans-69" d="M 603 3500 
L 1178 3500 
L 1178 0 
L 603 0 
L 603 3500 
z
M 603 4863 
L 1178 4863 
L 1178 4134 
L 603 4134 
L 603 4863 
z
" transform="scale(0.015625)"/>
       <path id="DejaVuSans-6d" d="M 3328 2828 
Q 3544 3216 3844 3400 
Q 4144 3584 4550 3584 
Q 5097 3584 5394 3201 
Q 5691 2819 5691 2113 
L 5691 0 
L 5113 0 
L 5113 2094 
Q 5113 2597 4934 2840 
Q 4756 3084 4391 3084 
Q 3944 3084 3684 2787 
Q 3425 2491 3425 1978 
L 3425 0 
L 2847 0 
L 2847 2094 
Q 2847 2600 2669 2842 
Q 2491 3084 2119 3084 
Q 1678 3084 1418 2786 
Q 1159 2488 1159 1978 
L 1159 0 
L 581 0 
L 581 3500 
L 1159 3500 
L 1159 2956 
Q 1356 3278 1631 3431 
Q 1906 3584 2284 3584 
Q 2666 3584 2933 3390 
Q 3200 3197 3328 2828 
z
" transform="scale(0.015625)"/>
       <path id="DejaVuSans-65" d="M 3597 1894 
L 3597 1613 
L 953 1613 
Q 991 1019 1311 708 
Q 1631 397 2203 397 
Q 2534 397 2845 478 
Q 3156 559 3463 722 
L 3463 178 
Q 3153 47 2828 -22 
Q 2503 -91 2169 -91 
Q 1331 -91 842 396 
Q 353 884 353 1716 
Q 353 2575 817 3079 
Q 1281 3584 2069 3584 
Q 2775 3584 3186 3129 
Q 3597 2675 3597 1894 
z
M 3022 2063 
Q 3016 2534 2758 2815 
Q 2500 3097 2075 3097 
Q 1594 3097 1305 2825 
Q 1016 2553 972 2059 
L 3022 2063 
z
" transform="scale(0.015625)"/>
       <path id="DejaVuSans-28" d="M 1984 4856 
Q 1566 4138 1362 3434 
Q 1159 2731 1159 2009 
Q 1159 1288 1364 580 
Q 1569 -128 1984 -844 
L 1484 -844 
Q 1016 -109 783 600 
Q 550 1309 550 2009 
Q 550 2706 781 3412 
Q 1013 4119 1484 4856 
L 1984 4856 
z
" transform="scale(0.015625)"/>
       <path id="DejaVuSans-6e" d="M 3513 2113 
L 3513 0 
L 2938 0 
L 2938 2094 
Q 2938 2591 2744 2837 
Q 2550 3084 2163 3084 
Q 1697 3084 1428 2787 
Q 1159 2491 1159 1978 
L 1159 0 
L 581 0 
L 581 3500 
L 1159 3500 
L 1159 2956 
Q 1366 3272 1645 3428 
Q 1925 3584 2291 3584 
Q 2894 3584 3203 3211 
Q 3513 2838 3513 2113 
z
" transform="scale(0.015625)"/>
       <path id="DejaVuSans-73" d="M 2834 3397 
L 2834 2853 
Q 2591 2978 2328 3040 
Q 2066 3103 1784 3103 
Q 1356 3103 1142 2972 
Q 928 2841 928 2578 
Q 928 2378 1081 2264 
Q 1234 2150 1697 2047 
L 1894 2003 
Q 2506 1872 2764 1633 
Q 3022 1394 3022 966 
Q 3022 478 2636 193 
Q 2250 -91 1575 -91 
Q 1294 -91 989 -36 
Q 684 19 347 128 
L 347 722 
Q 666 556 975 473 
Q 1284 391 1588 391 
Q 1994 391 2212 530 
Q 2431 669 2431 922 
Q 2431 1156 2273 1281 
Q 2116 1406 1581 1522 
L 1381 1569 
Q 847 1681 609 1914 
Q 372 2147 372 2553 
Q 372 3047 722 3315 
Q 1072 3584 1716 3584 
Q 2034 3584 2315 3537 
Q 2597 3491 2834 3397 
z
" transform="scale(0.015625)"/>
       <path id="DejaVuSans-29" d="M 513 4856 
L 1013 4856 
Q 1481 4119 1714 3412 
Q 1947 2706 1947 2009 
Q 1947 1309 1714 600 
Q 1481 -109 1013 -844 
L 513 -844 
Q 928 -128 1133 580 
Q 1338 1288 1338 2009 
Q 1338 2731 1133 3434 
Q 928 4138 513 4856 
z
" transform="scale(0.015625)"/>
      </defs>
      <use xlink:href="#DejaVuSans-74" transform="translate(0 0.015625)"/>
      <use xlink:href="#DejaVuSans-69" transform="translate(39.208984 0.015625)"/>
      <use xlink:href="#DejaVuSans-6d" transform="translate(66.992188 0.015625)"/>
      <use xlink:href="#DejaVuSans-65" transform="translate(164.404297 0.015625)"/>
      <use xlink:href="#DejaVuSans-28" transform="translate(258.398113 0.015625)"/>
      <use xlink:href="#DejaVuSans-6e" transform="translate(297.411785 0.015625)"/>
      <use xlink:href="#DejaVuSans-73" transform="translate(360.790691 0.015625)"/>
      <use xlink:href="#DejaVuSans-29" transform="translate(412.8903 0.015625)"/>
     </g>
    </g>
   </g>
   <g id="matplotlib.axis_2">
    <g id="ytick_1">
     <g id="line2d_7">
      <defs>
       <path id="m69f3e37726" d="M 0 0 
L -3.5 0 
" style="stroke: #000000"/>
      </defs>
      <g>
       <use xlink:href="#m69f3e37726" x="49.95024" y="221.76162" style="stroke: #000000"/>
      </g>
     </g>
     <g id="text_8">
      <!-- 0 -->
      <g transform="translate(36.58774 225.560839) scale(0.1 -0.1)">
       <use xlink:href="#DejaVuSans-30"/>
      </g>
     </g>
    </g>
    <g id="ytick_2">
     <g id="line2d_8">
      <g>
       <use xlink:href="#m69f3e37726" x="49.95024" y="198.620341" style="stroke: #000000"/>
      </g>
     </g>
     <g id="text_9">
      <!-- 250 -->
      <g transform="translate(23.86274 202.41956) scale(0.1 -0.1)">
       <defs>
        <path id="DejaVuSans-35" d="M 691 4666 
L 3169 4666 
L 3169 4134 
L 1269 4134 
L 1269 2991 
Q 1406 3038 1543 3061 
Q 1681 3084 1819 3084 
Q 2600 3084 3056 2656 
Q 3513 2228 3513 1497 
Q 3513 744 3044 326 
Q 2575 -91 1722 -91 
Q 1428 -91 1123 -41 
Q 819 9 494 109 
L 494 744 
Q 775 591 1075 516 
Q 1375 441 1709 441 
Q 2250 441 2565 725 
Q 2881 1009 2881 1497 
Q 2881 1984 2565 2268 
Q 2250 2553 1709 2553 
Q 1456 2553 1204 2497 
Q 953 2441 691 2322 
L 691 4666 
z
" transform="scale(0.015625)"/>
       </defs>
       <use xlink:href="#DejaVuSans-32"/>
       <use xlink:href="#DejaVuSans-35" x="63.623047"/>
       <use xlink:href="#DejaVuSans-30" x="127.246094"/>
      </g>
     </g>
    </g>
    <g id="ytick_3">
     <g id="line2d_9">
      <g>
       <use xlink:href="#m69f3e37726" x="49.95024" y="175.479062" style="stroke: #000000"/>
      </g>
     </g>
     <g id="text_10">
      <!-- 500 -->
      <g transform="translate(23.86274 179.278281) scale(0.1 -0.1)">
       <use xlink:href="#DejaVuSans-35"/>
       <use xlink:href="#DejaVuSans-30" x="63.623047"/>
       <use xlink:href="#DejaVuSans-30" x="127.246094"/>
      </g>
     </g>
    </g>
    <g id="ytick_4">
     <g id="line2d_10">
      <g>
       <use xlink:href="#m69f3e37726" x="49.95024" y="152.337783" style="stroke: #000000"/>
      </g>
     </g>
     <g id="text_11">
      <!-- 750 -->
      <g transform="translate(23.86274 156.137002) scale(0.1 -0.1)">
       <defs>
        <path id="DejaVuSans-37" d="M 525 4666 
L 3525 4666 
L 3525 4397 
L 1831 0 
L 1172 0 
L 2766 4134 
L 525 4134 
L 525 4666 
z
" transform="scale(0.015625)"/>
       </defs>
       <use xlink:href="#DejaVuSans-37"/>
       <use xlink:href="#DejaVuSans-35" x="63.623047"/>
       <use xlink:href="#DejaVuSans-30" x="127.246094"/>
      </g>
     </g>
    </g>
    <g id="ytick_5">
     <g id="line2d_11">
      <g>
       <use xlink:href="#m69f3e37726" x="49.95024" y="129.196504" style="stroke: #000000"/>
      </g>
     </g>
     <g id="text_12">
      <!-- 1000 -->
      <g transform="translate(17.50024 132.995723) scale(0.1 -0.1)">
       <use xlink:href="#DejaVuSans-31"/>
       <use xlink:href="#DejaVuSans-30" x="63.623047"/>
       <use xlink:href="#DejaVuSans-30" x="127.246094"/>
       <use xlink:href="#DejaVuSans-30" x="190.869141"/>
      </g>
     </g>
    </g>
    <g id="ytick_6">
     <g id="line2d_12">
      <g>
       <use xlink:href="#m69f3e37726" x="49.95024" y="106.055225" style="stroke: #000000"/>
      </g>
     </g>
     <g id="text_13">
      <!-- 1250 -->
      <g transform="translate(17.50024 109.854444) scale(0.1 -0.1)">
       <use xlink:href="#DejaVuSans-31"/>
       <use xlink:href="#DejaVuSans-32" x="63.623047"/>
       <use xlink:href="#DejaVuSans-35" x="127.246094"/>
       <use xlink:href="#DejaVuSans-30" x="190.869141"/>
      </g>
     </g>
    </g>
    <g id="ytick_7">
     <g id="line2d_13">
      <g>
       <use xlink:href="#m69f3e37726" x="49.95024" y="82.913946" style="stroke: #000000"/>
      </g>
     </g>
     <g id="text_14">
      <!-- 1500 -->
      <g transform="translate(17.50024 86.713165) scale(0.1 -0.1)">
       <use xlink:href="#DejaVuSans-31"/>
       <use xlink:href="#DejaVuSans-35" x="63.623047"/>
       <use xlink:href="#DejaVuSans-30" x="127.246094"/>
       <use xlink:href="#DejaVuSans-30" x="190.869141"/>
      </g>
     </g>
    </g>
    <g id="ytick_8">
     <g id="line2d_14">
      <g>
       <use xlink:href="#m69f3e37726" x="49.95024" y="59.772667" style="stroke: #000000"/>
      </g>
     </g>
     <g id="text_15">
      <!-- 1750 -->
      <g transform="translate(17.50024 63.571886) scale(0.1 -0.1)">
       <use xlink:href="#DejaVuSans-31"/>
       <use xlink:href="#DejaVuSans-37" x="63.623047"/>
       <use xlink:href="#DejaVuSans-35" x="127.246094"/>
       <use xlink:href="#DejaVuSans-30" x="190.869141"/>
      </g>
     </g>
    </g>
    <g id="ytick_9">
     <g id="line2d_15">
      <g>
       <use xlink:href="#m69f3e37726" x="49.95024" y="36.631388" style="stroke: #000000"/>
      </g>
     </g>
     <g id="text_16">
      <!-- 2000 -->
      <g transform="translate(17.50024 40.430607) scale(0.1 -0.1)">
       <use xlink:href="#DejaVuSans-32"/>
       <use xlink:href="#DejaVuSans-30" x="63.623047"/>
       <use xlink:href="#DejaVuSans-30" x="127.246094"/>
       <use xlink:href="#DejaVuSans-30" x="190.869141"/>
      </g>
     </g>
    </g>
    <g id="text_17">
     <!-- $\mathrm{MSD\ (nm)}^2$ -->
     <g transform="translate(11.420553 147.289993) rotate(-90) scale(0.1 -0.1)">
      <defs>
       <path id="DejaVuSans-4d" d="M 628 4666 
L 1569 4666 
L 2759 1491 
L 3956 4666 
L 4897 4666 
L 4897 0 
L 4281 0 
L 4281 4097 
L 3078 897 
L 2444 897 
L 1241 4097 
L 1241 0 
L 628 0 
L 628 4666 
z
" transform="scale(0.015625)"/>
       <path id="DejaVuSans-53" d="M 3425 4513 
L 3425 3897 
Q 3066 4069 2747 4153 
Q 2428 4238 2131 4238 
Q 1616 4238 1336 4038 
Q 1056 3838 1056 3469 
Q 1056 3159 1242 3001 
Q 1428 2844 1947 2747 
L 2328 2669 
Q 3034 2534 3370 2195 
Q 3706 1856 3706 1288 
Q 3706 609 3251 259 
Q 2797 -91 1919 -91 
Q 1588 -91 1214 -16 
Q 841 59 441 206 
L 441 856 
Q 825 641 1194 531 
Q 1563 422 1919 422 
Q 2459 422 2753 634 
Q 3047 847 3047 1241 
Q 3047 1584 2836 1778 
Q 2625 1972 2144 2069 
L 1759 2144 
Q 1053 2284 737 2584 
Q 422 2884 422 3419 
Q 422 4038 858 4394 
Q 1294 4750 2059 4750 
Q 2388 4750 2728 4690 
Q 3069 4631 3425 4513 
z
" transform="scale(0.015625)"/>
       <path id="DejaVuSans-44" d="M 1259 4147 
L 1259 519 
L 2022 519 
Q 2988 519 3436 956 
Q 3884 1394 3884 2338 
Q 3884 3275 3436 3711 
Q 2988 4147 2022 4147 
L 1259 4147 
z
M 628 4666 
L 1925 4666 
Q 3281 4666 3915 4102 
Q 4550 3538 4550 2338 
Q 4550 1131 3912 565 
Q 3275 0 1925 0 
L 628 0 
L 628 4666 
z
" transform="scale(0.015625)"/>
      </defs>
      <use xlink:href="#DejaVuSans-4d" transform="translate(0 0.765625)"/>
      <use xlink:href="#DejaVuSans-53" transform="translate(86.279297 0.765625)"/>
      <use xlink:href="#DejaVuSans-44" transform="translate(149.755859 0.765625)"/>
      <use xlink:href="#DejaVuSans-28" transform="translate(259.228191 0.765625)"/>
      <use xlink:href="#DejaVuSans-6e" transform="translate(298.241863 0.765625)"/>
      <use xlink:href="#DejaVuSans-6d" transform="translate(361.620769 0.765625)"/>
      <use xlink:href="#DejaVuSans-29" transform="translate(459.032878 0.765625)"/>
      <use xlink:href="#DejaVuSans-32" transform="translate(499.003582 39.046875) scale(0.7)"/>
     </g>
    </g>
   </g>
   <g id="line2d_16">
    <path d="M 49.95024 221.76162 
L 51.072044 221.174314 
L 92.412203 199.692992 
L 101.386638 195.418557 
L 116.936402 188.361911 
L 133.819003 181.336355 
L 163.163629 169.907499 
L 177.413877 164.78916 
L 199.227974 157.875386 
L 202.982132 156.785013 
L 206.325331 155.861095 
L 217.01024 153.244758 
L 222.630369 151.898674 
L 232.948748 149.738192 
L 236.24752 149.000793 
L 239.701789 148.194024 
L 246.543685 146.457508 
L 249.309322 145.482818 
L 253.330046 143.756774 
L 258.794678 141.534045 
L 262.049021 140.508587 
L 268.768741 138.592512 
L 273.289279 137.310647 
L 275.299641 136.844389 
L 277.498822 136.47306 
L 279.309259 136.107577 
L 282.796849 135.134761 
L 285.940123 134.030028 
L 291.726856 131.580772 
L 296.44732 129.061225 
L 300.623543 126.728057 
L 305.266258 124.263656 
L 306.276993 123.765836 
L 308.576136 122.825063 
L 311.186275 121.374789 
L 312.596861 120.343815 
L 315.284749 118.373217 
L 316.328804 117.912506 
L 317.85046 117.204892 
L 318.938943 116.718387 
L 319.672004 116.426079 
L 321.360264 115.390928 
L 323.315091 113.682004 
L 324.059259 113.00656 
L 324.592393 112.812044 
L 324.82564 112.728203 
L 325.492058 112.097168 
L 326.702718 110.312581 
L 327.146997 109.714951 
L 327.569062 108.153711 
L 327.580169 108.179352 
L 327.61349 108.636367 
L 327.61349 108.636367 
" clip-path="url(#pcf77486f23)" style="fill: none; stroke-dasharray: 3.7,1.6; stroke-dashoffset: 0; stroke: #56ab91"/>
   </g>
   <g id="line2d_17">
    <path d="M 49.95024 221.76162 
L 50.916547 221.244059 
L 61.73474 215.568061 
L 84.548465 203.946437 
L 100.664685 196.21863 
L 112.926784 190.56451 
L 145.581289 176.200154 
L 156.466123 171.548068 
L 165.229526 167.481223 
L 175.003664 163.011635 
L 190.353502 156.27881 
L 196.517873 153.811906 
L 201.160588 152.005658 
L 206.480829 149.682887 
L 219.998016 143.645588 
L 224.418592 142.012224 
L 231.193846 139.546356 
L 243.489267 134.280951 
L 247.432243 132.546716 
L 252.174921 130.852622 
L 277.498822 122.28012 
L 281.108589 120.795171 
L 283.89644 119.620047 
L 291.338112 116.389648 
L 294.148177 115.239002 
L 307.543188 109.74679 
L 309.275876 109.119871 
L 310.675355 108.36948 
L 314.040768 106.246828 
L 316.028916 105.659672 
L 318.128134 105.337437 
L 319.205511 105.531335 
L 319.749753 105.671571 
L 320.393957 105.646688 
L 321.038162 105.542977 
L 321.848971 105.637418 
L 323.75937 106.312488 
L 324.82564 106.161579 
L 325.269919 106.135667 
L 325.603128 106.194017 
L 325.836374 106.003678 
L 326.269546 105.436184 
L 326.947072 104.467048 
L 326.9915 104.500709 
L 327.280281 104.740769 
L 327.302495 104.713555 
L 327.346923 104.70831 
L 327.391351 104.774088 
L 327.435779 104.705713 
L 327.580169 104.250206 
L 327.602383 104.270149 
L 327.61349 104.483866 
L 327.61349 104.483866 
" clip-path="url(#pcf77486f23)" style="fill: none; stroke: #56ab91; stroke-linecap: square"/>
   </g>
   <g id="line2d_18">
    <path d="M 49.95024 221.76162 
L 51.060937 221.18285 
L 63.434107 214.696479 
L 100.931252 194.424153 
L 109.328125 189.86019 
L 117.169648 185.644896 
L 138.650537 174.112674 
L 152.301008 166.560297 
L 158.598663 163.022506 
L 175.703403 153.454848 
L 186.132852 147.417263 
L 202.537853 138.242568 
L 207.791452 135.469026 
L 218.965068 129.254481 
L 227.250871 124.701031 
L 232.64886 121.92287 
L 238.024636 119.535183 
L 252.219349 113.888005 
L 258.905747 110.926478 
L 273.855735 104.740595 
L 278.087492 102.609302 
L 286.028979 98.974711 
L 289.083396 97.888537 
L 293.18187 96.57702 
L 294.925665 95.832804 
L 296.758316 95.091583 
L 301.500994 93.416381 
L 303.855672 92.874156 
L 305.532825 92.558007 
L 307.532081 92.702847 
L 312.352508 93.319753 
L 313.663131 93.20064 
L 314.7294 93.140555 
L 315.729028 92.997544 
L 317.595 92.684226 
L 318.761232 92.620769 
L 319.982999 92.485458 
L 321.871185 92.564657 
L 323.226235 93.110217 
L 325.691984 92.728987 
L 325.92523 92.76568 
L 326.180691 92.780145 
L 326.913751 92.124885 
L 327.291388 91.52978 
L 327.313602 91.590631 
L 327.413565 91.712257 
L 327.446886 91.605555 
L 327.580169 90.99979 
L 327.61349 91.356935 
" clip-path="url(#pcf77486f23)" style="fill: none; stroke-dasharray: 3.7,1.6; stroke-dashoffset: 0; stroke: #56ab91"/>
   </g>
   <g id="line2d_19">
    <path d="M 49.95024 221.76162 
L 50.994296 221.203977 
L 63.145325 214.624581 
L 129.798278 177.928648 
L 154.122552 165.236465 
L 159.409472 162.356396 
L 179.046602 151.246243 
L 185.199866 147.745419 
L 190.87553 144.601365 
L 197.206505 141.245731 
L 203.182057 138.294687 
L 213.411581 133.419007 
L 225.05169 127.745668 
L 233.892841 123.274035 
L 237.613678 121.632808 
L 248.90947 116.875771 
L 254.107534 114.446203 
L 257.395199 113.082617 
L 259.749877 112.074686 
L 263.181932 110.388453 
L 267.491438 107.970094 
L 271.167847 105.77372 
L 277.565464 102.294442 
L 284.551751 98.168416 
L 291.538038 93.058742 
L 293.326261 91.767697 
L 300.123729 87.069161 
L 303.189254 84.619134 
L 305.099653 83.48369 
L 306.2881 82.769841 
L 307.643151 82.145746 
L 311.652768 80.78442 
L 314.684972 79.095421 
L 316.217735 78.043043 
L 318.972264 76.254218 
L 323.192915 73.327961 
L 323.75937 73.122344 
L 324.34804 73.011058 
L 325.369882 73.522306 
L 325.847481 73.712737 
L 325.969658 73.784032 
L 327.24696 74.812243 
L 327.258067 74.795657 
L 327.369137 74.608597 
L 327.569062 73.511803 
L 327.591276 73.73026 
L 327.61349 74.476173 
L 327.61349 74.476173 
" clip-path="url(#pcf77486f23)" style="fill: none; stroke: #56ab91; stroke-linecap: square"/>
   </g>
   <g id="line2d_20">
    <path d="M 49.95024 221.76162 
L 50.983189 221.210429 
L 84.792818 202.92833 
L 125.16667 179.836839 
L 134.374352 174.465628 
L 149.568692 166.103117 
L 168.017377 156.118251 
L 177.03624 150.649474 
L 183.444964 146.776469 
L 198.139491 138.156303 
L 208.691117 131.562336 
L 215.233124 127.917292 
L 219.120565 125.661872 
L 222.29716 123.58077 
L 227.772898 119.927336 
L 237.169399 114.089417 
L 245.632913 109.136109 
L 250.131238 106.541581 
L 260.949431 100.14134 
L 264.148239 98.554837 
L 278.97605 91.640477 
L 289.483248 85.916131 
L 292.793126 83.783527 
L 297.224809 80.5724 
L 302.733868 76.2961 
L 306.332528 73.820446 
L 309.520229 72.215712 
L 310.608713 71.803229 
L 312.419149 70.858599 
L 313.2966 70.116827 
L 314.229586 69.373545 
L 318.483557 66.627809 
L 319.072227 65.981834 
L 321.304729 62.961938 
L 322.893026 60.77911 
L 323.526124 59.913505 
L 324.503538 58.240043 
L 325.458737 56.290424 
L 326.602756 53.281687 
L 326.813788 53.322284 
L 326.913751 53.41873 
L 326.958179 53.391625 
L 327.002607 53.440953 
L 327.013714 53.473437 
L 327.324709 54.042756 
L 327.413565 54.221269 
L 327.435779 54.333707 
L 327.4691 54.126431 
L 327.502421 54.179688 
L 327.580169 53.80318 
L 327.602383 54.136905 
L 327.61349 54.439984 
L 327.61349 54.439984 
" clip-path="url(#pcf77486f23)" style="fill: none; stroke-dasharray: 3.7,1.6; stroke-dashoffset: 0; stroke: #56ab91"/>
   </g>
   <g id="line2d_21">
    <path d="M 49.95024 221.76162 
L 50.994296 221.207237 
L 62.545549 214.982304 
L 72.8195 209.358024 
L 86.780967 201.628317 
L 96.233002 196.258008 
L 112.082654 187.381683 
L 121.512475 182.245713 
L 131.231078 176.98804 
L 174.881487 152.833689 
L 183.411643 148.398604 
L 189.120628 145.671559 
L 199.383472 141.038497 
L 204.681499 138.822299 
L 215.744045 134.11891 
L 235.047967 125.505223 
L 240.012784 123.28553 
L 242.922811 121.749719 
L 248.709545 118.787371 
L 251.386326 117.339397 
L 261.127142 111.814269 
L 265.703216 109.46336 
L 269.524015 107.521222 
L 275.666172 104.065186 
L 279.264831 102.373531 
L 282.674672 101.158214 
L 288.094876 99.580236 
L 291.526931 98.5721 
L 295.958614 97.038221 
L 297.047097 96.614613 
L 299.579487 95.718397 
L 302.089663 94.893368 
L 307.165551 94.041597 
L 308.831597 93.931914 
L 310.497643 93.949134 
L 311.341773 94.03975 
L 312.874535 94.130628 
L 316.206628 93.769457 
L 317.728283 93.496591 
L 320.105176 93.575487 
L 320.616097 93.829986 
L 321.438013 94.337266 
L 322.992989 95.091171 
L 323.970403 95.475007 
L 324.414682 95.397075 
L 325.625342 94.361655 
L 326.102942 93.771801 
L 327.102569 91.791569 
L 327.457993 91.362001 
L 327.580169 90.482943 
L 327.61349 90.846203 
" clip-path="url(#pcf77486f23)" style="fill: none; stroke: #56ab91; stroke-linecap: square"/>
   </g>
   <g id="line2d_22">
    <path d="M 49.95024 221.76162 
L 51.038723 221.184051 
L 65.888748 213.387996 
L 81.305228 205.256875 
L 87.847236 201.83334 
L 93.867216 198.575862 
L 103.374786 193.310948 
L 119.246653 184.642038 
L 136.073719 176.033347 
L 147.802684 170.425272 
L 152.911892 168.038362 
L 168.450549 161.024307 
L 176.536426 157.026822 
L 182.46755 153.991246 
L 189.087307 150.422333 
L 196.640049 145.990159 
L 213.111692 135.897726 
L 221.419709 130.918589 
L 224.807336 129.028134 
L 231.9158 125.139986 
L 238.41338 121.234811 
L 243.244914 118.33252 
L 258.794678 109.725064 
L 261.271533 108.735907 
L 267.113801 106.346117 
L 271.012349 104.244377 
L 275.421818 101.788079 
L 279.431436 99.228692 
L 281.708366 97.906687 
L 290.027489 93.193447 
L 293.948251 90.845825 
L 295.514335 90.005768 
L 298.10226 88.851382 
L 301.145571 87.26176 
L 310.475429 81.475081 
L 312.263652 80.745927 
L 315.717921 79.837231 
L 318.083706 78.457966 
L 321.238087 76.543711 
L 322.026682 75.915991 
L 322.448747 75.458904 
L 323.015203 74.601276 
L 323.670514 73.700219 
L 325.047779 72.104867 
L 325.358775 71.963205 
L 326.225119 71.637024 
L 326.669398 70.961936 
L 326.691611 70.986218 
L 326.847109 71.051601 
L 327.091463 70.895853 
L 327.124783 70.884109 
L 327.158104 70.825686 
L 327.335816 70.655519 
L 327.346923 70.692539 
L 327.391351 70.765447 
L 327.435779 70.604742 
L 327.513528 70.099154 
L 327.580169 70.469083 
L 327.591276 70.530253 
L 327.61349 70.279643 
L 327.61349 70.279643 
" clip-path="url(#pcf77486f23)" style="fill: none; stroke-dasharray: 3.7,1.6; stroke-dashoffset: 0; stroke: #56ab91"/>
   </g>
   <g id="line2d_23">
    <path d="M 49.95024 221.76162 
L 51.138686 221.12867 
L 75.685099 208.074285 
L 98.032332 195.794368 
L 129.565032 178.881228 
L 165.562735 159.195014 
L 170.79412 156.444463 
L 177.091775 153.129895 
L 186.976982 148.063527 
L 195.873668 143.239142 
L 206.791824 137.505631 
L 210.956939 135.069133 
L 248.709545 112.920568 
L 252.052744 111.262489 
L 259.96091 107.72118 
L 268.568815 104.385247 
L 274.088981 102.750883 
L 277.998636 100.915674 
L 287.683918 95.823096 
L 291.171508 94.374813 
L 296.513962 92.373693 
L 297.713516 91.685796 
L 299.79052 90.242692 
L 300.967859 89.575735 
L 304.3777 87.779597 
L 306.443597 86.80791 
L 311.619447 85.244859 
L 312.630182 84.910843 
L 316.595372 83.000645 
L 317.994851 82.441365 
L 319.050013 82.281615 
L 319.783073 82.25739 
L 320.416171 82.290017 
L 321.104803 82.50401 
L 321.44912 82.630174 
L 322.748636 83.384502 
L 324.203649 84.093334 
L 324.592393 83.976893 
L 325.380988 83.309561 
L 325.758626 82.688998 
L 326.313974 82.018886 
L 326.669398 81.85735 
L 326.824895 81.784355 
L 326.969286 81.673167 
L 327.280281 81.079926 
L 327.557955 79.124927 
L 327.61349 79.154265 
" clip-path="url(#pcf77486f23)" style="fill: none; stroke: #56ab91; stroke-linecap: square"/>
   </g>
   <g id="patch_3">
    <path d="M 49.95024 221.76162 
L 49.95024 18.118365 
" style="fill: none; stroke: #000000; stroke-linejoin: miter; stroke-linecap: square"/>
   </g>
   <g id="patch_4">
    <path d="M 327.61349 221.76162 
L 327.61349 18.118365 
" style="fill: none; stroke: #000000; stroke-linejoin: miter; stroke-linecap: square"/>
   </g>
   <g id="patch_5">
    <path d="M 49.95024 221.76162 
L 327.61349 221.76162 
" style="fill: none; stroke: #000000; stroke-linejoin: miter; stroke-linecap: square"/>
   </g>
   <g id="patch_6">
    <path d="M 49.95024 18.118365 
L 327.61349 18.118365 
" style="fill: none; stroke: #000000; stroke-linejoin: miter; stroke-linecap: square"/>
   </g>
   <g id="text_18">
    <!-- box: 4.4 nm -->
    <g transform="translate(152.914053 12.118365) scale(0.12 -0.12)">
     <defs>
      <path id="DejaVuSans-62" d="M 3116 1747 
Q 3116 2381 2855 2742 
Q 2594 3103 2138 3103 
Q 1681 3103 1420 2742 
Q 1159 2381 1159 1747 
Q 1159 1113 1420 752 
Q 1681 391 2138 391 
Q 2594 391 2855 752 
Q 3116 1113 3116 1747 
z
M 1159 2969 
Q 1341 3281 1617 3432 
Q 1894 3584 2278 3584 
Q 2916 3584 3314 3078 
Q 3713 2572 3713 1747 
Q 3713 922 3314 415 
Q 2916 -91 2278 -91 
Q 1894 -91 1617 61 
Q 1341 213 1159 525 
L 1159 0 
L 581 0 
L 581 4863 
L 1159 4863 
L 1159 2969 
z
" transform="scale(0.015625)"/>
      <path id="DejaVuSans-6f" d="M 1959 3097 
Q 1497 3097 1228 2736 
Q 959 2375 959 1747 
Q 959 1119 1226 758 
Q 1494 397 1959 397 
Q 2419 397 2687 759 
Q 2956 1122 2956 1747 
Q 2956 2369 2687 2733 
Q 2419 3097 1959 3097 
z
M 1959 3584 
Q 2709 3584 3137 3096 
Q 3566 2609 3566 1747 
Q 3566 888 3137 398 
Q 2709 -91 1959 -91 
Q 1206 -91 779 398 
Q 353 888 353 1747 
Q 353 2609 779 3096 
Q 1206 3584 1959 3584 
z
" transform="scale(0.015625)"/>
      <path id="DejaVuSans-78" d="M 3513 3500 
L 2247 1797 
L 3578 0 
L 2900 0 
L 1881 1375 
L 863 0 
L 184 0 
L 1544 1831 
L 300 3500 
L 978 3500 
L 1906 2253 
L 2834 3500 
L 3513 3500 
z
" transform="scale(0.015625)"/>
      <path id="DejaVuSans-3a" d="M 750 794 
L 1409 794 
L 1409 0 
L 750 0 
L 750 794 
z
M 750 3309 
L 1409 3309 
L 1409 2516 
L 750 2516 
L 750 3309 
z
" transform="scale(0.015625)"/>
      <path id="DejaVuSans-20" transform="scale(0.015625)"/>
      <path id="DejaVuSans-2e" d="M 684 794 
L 1344 794 
L 1344 0 
L 684 0 
L 684 794 
z
" transform="scale(0.015625)"/>
     </defs>
     <use xlink:href="#DejaVuSans-62"/>
     <use xlink:href="#DejaVuSans-6f" x="63.476562"/>
     <use xlink:href="#DejaVuSans-78" x="121.533203"/>
     <use xlink:href="#DejaVuSans-3a" x="180.712891"/>
     <use xlink:href="#DejaVuSans-20" x="214.404297"/>
     <use xlink:href="#DejaVuSans-34" x="246.191406"/>
     <use xlink:href="#DejaVuSans-2e" x="309.814453"/>
     <use xlink:href="#DejaVuSans-34" x="341.601562"/>
     <use xlink:href="#DejaVuSans-20" x="405.224609"/>
     <use xlink:href="#DejaVuSans-6e" x="437.011719"/>
     <use xlink:href="#DejaVuSans-6d" x="500.390625"/>
    </g>
   </g>
   <g id="legend_1">
    <g id="patch_7">
     <path d="M 269.81349 55.474615 
L 320.61349 55.474615 
Q 322.61349 55.474615 322.61349 53.474615 
L 322.61349 25.118365 
Q 322.61349 23.118365 320.61349 23.118365 
L 269.81349 23.118365 
Q 267.81349 23.118365 267.81349 25.118365 
L 267.81349 53.474615 
Q 267.81349 55.474615 269.81349 55.474615 
z
" style="fill: #ffffff; opacity: 0.8; stroke: #cccccc; stroke-linejoin: miter"/>
    </g>
    <g id="line2d_24">
     <path d="M 271.81349 31.216803 
L 281.81349 31.216803 
L 291.81349 31.216803 
" style="fill: none; stroke-dasharray: 3.7,1.6; stroke-dashoffset: 0; stroke: #56ab91"/>
    </g>
    <g id="text_19">
     <!-- $\mathrm{Cl}^-$ -->
     <g transform="translate(299.81349 34.716803) scale(0.1 -0.1)">
      <defs>
       <path id="DejaVuSans-43" d="M 4122 4306 
L 4122 3641 
Q 3803 3938 3442 4084 
Q 3081 4231 2675 4231 
Q 1875 4231 1450 3742 
Q 1025 3253 1025 2328 
Q 1025 1406 1450 917 
Q 1875 428 2675 428 
Q 3081 428 3442 575 
Q 3803 722 4122 1019 
L 4122 359 
Q 3791 134 3420 21 
Q 3050 -91 2638 -91 
Q 1578 -91 968 557 
Q 359 1206 359 2328 
Q 359 3453 968 4101 
Q 1578 4750 2638 4750 
Q 3056 4750 3426 4639 
Q 3797 4528 4122 4306 
z
" transform="scale(0.015625)"/>
       <path id="DejaVuSans-6c" d="M 603 4863 
L 1178 4863 
L 1178 0 
L 603 0 
L 603 4863 
z
" transform="scale(0.015625)"/>
       <path id="DejaVuSans-2212" d="M 678 2272 
L 4684 2272 
L 4684 1741 
L 678 1741 
L 678 2272 
z
" transform="scale(0.015625)"/>
      </defs>
      <use xlink:href="#DejaVuSans-43" transform="translate(0 0.015625)"/>
      <use xlink:href="#DejaVuSans-6c" transform="translate(69.824219 0.015625)"/>
      <use xlink:href="#DejaVuSans-2212" transform="translate(112.202148 38.296875) scale(0.7)"/>
     </g>
    </g>
    <g id="line2d_25">
     <path d="M 271.81349 45.894927 
L 281.81349 45.894927 
L 291.81349 45.894927 
" style="fill: none; stroke: #56ab91; stroke-linecap: square"/>
    </g>
    <g id="text_20">
     <!-- $\mathrm{K}^+$ -->
     <g transform="translate(299.81349 49.394927) scale(0.1 -0.1)">
      <defs>
       <path id="DejaVuSans-4b" d="M 628 4666 
L 1259 4666 
L 1259 2694 
L 3353 4666 
L 4166 4666 
L 1850 2491 
L 4331 0 
L 3500 0 
L 1259 2247 
L 1259 0 
L 628 0 
L 628 4666 
z
" transform="scale(0.015625)"/>
       <path id="DejaVuSans-2b" d="M 2944 4013 
L 2944 2272 
L 4684 2272 
L 4684 1741 
L 2944 1741 
L 2944 0 
L 2419 0 
L 2419 1741 
L 678 1741 
L 678 2272 
L 2419 2272 
L 2419 4013 
L 2944 4013 
z
" transform="scale(0.015625)"/>
      </defs>
      <use xlink:href="#DejaVuSans-4b" transform="translate(0 0.826562)"/>
      <use xlink:href="#DejaVuSans-2b" transform="translate(80.170898 39.107812) scale(0.7)"/>
     </g>
    </g>
   </g>
  </g>
 </g>
 <defs>
  <clipPath id="pcf77486f23">
   <rect x="49.95024" y="18.118365" width="277.66325" height="203.643255"/>
  </clipPath>
 </defs>
</svg>
