<?xml version="1.0" encoding="utf-8" standalone="no"?>
<!DOCTYPE svg PUBLIC "-//W3C//DTD SVG 1.1//EN"
  "http://www.w3.org/Graphics/SVG/1.1/DTD/svg11.dtd">
<svg xmlns:xlink="http://www.w3.org/1999/xlink" width="340.15748pt" height="255.11811pt" viewBox="0 0 340.15748 255.11811" xmlns="http://www.w3.org/2000/svg" version="1.1">
 <metadata>
  <rdf:RDF xmlns:dc="http://purl.org/dc/elements/1.1/" xmlns:cc="http://creativecommons.org/ns#" xmlns:rdf="http://www.w3.org/1999/02/22-rdf-syntax-ns#">
   <cc:Work>
    <dc:type rdf:resource="http://purl.org/dc/dcmitype/StillImage"/>
    <dc:date>2023-04-03T14:43:25.433004</dc:date>
    <dc:format>image/svg+xml</dc:format>
    <dc:creator>
     <cc:Agent>
      <dc:title>Matplotlib v3.6.2, https://matplotlib.org/</dc:title>
     </cc:Agent>
    </dc:creator>
   </cc:Work>
  </rdf:RDF>
 </metadata>
 <defs>
  <style type="text/css">*{stroke-linejoin: round; stroke-linecap: butt}</style>
 </defs>
 <g id="figure_1">
  <g id="patch_1">
   <path d="M 0 255.11811 
L 340.15748 255.11811 
L 340.15748 0 
L 0 0 
z
" style="fill: #ffffff"/>
  </g>
  <g id="axes_1">
   <g id="patch_2">
    <path d="M 49.95024 221.76162 
L 327.61349 221.76162 
L 327.61349 18.118365 
L 49.95024 18.118365 
z
" style="fill: #ffffff"/>
   </g>
   <g id="matplotlib.axis_1">
    <g id="xtick_1">
     <g id="line2d_1">
      <defs>
       <path id="m3b028d6e5d" d="M 0 0 
L 0 3.5 
" style="stroke: #000000"/>
      </defs>
      <g>
       <use xlink:href="#m3b028d6e5d" x="49.95024" y="221.76162" style="stroke: #000000"/>
      </g>
     </g>
     <g id="text_1">
      <!-- 0 -->
      <g transform="translate(46.76899 236.360058) scale(0.1 -0.1)">
       <defs>
        <path id="DejaVuSans-30" d="M 2034 4250 
Q 1547 4250 1301 3770 
Q 1056 3291 1056 2328 
Q 1056 1369 1301 889 
Q 1547 409 2034 409 
Q 2525 409 2770 889 
Q 3016 1369 3016 2328 
Q 3016 3291 2770 3770 
Q 2525 4250 2034 4250 
z
M 2034 4750 
Q 2819 4750 3233 4129 
Q 3647 3509 3647 2328 
Q 3647 1150 3233 529 
Q 2819 -91 2034 -91 
Q 1250 -91 836 529 
Q 422 1150 422 2328 
Q 422 3509 836 4129 
Q 1250 4750 2034 4750 
z
" transform="scale(0.015625)"/>
       </defs>
       <use xlink:href="#DejaVuSans-30"/>
      </g>
     </g>
    </g>
    <g id="xtick_2">
     <g id="line2d_2">
      <g>
       <use xlink:href="#m3b028d6e5d" x="105.48289" y="221.76162" style="stroke: #000000"/>
      </g>
     </g>
     <g id="text_2">
      <!-- 20 -->
      <g transform="translate(99.12039 236.360058) scale(0.1 -0.1)">
       <defs>
        <path id="DejaVuSans-32" d="M 1228 531 
L 3431 531 
L 3431 0 
L 469 0 
L 469 531 
Q 828 903 1448 1529 
Q 2069 2156 2228 2338 
Q 2531 2678 2651 2914 
Q 2772 3150 2772 3378 
Q 2772 3750 2511 3984 
Q 2250 4219 1831 4219 
Q 1534 4219 1204 4116 
Q 875 4013 500 3803 
L 500 4441 
Q 881 4594 1212 4672 
Q 1544 4750 1819 4750 
Q 2544 4750 2975 4387 
Q 3406 4025 3406 3419 
Q 3406 3131 3298 2873 
Q 3191 2616 2906 2266 
Q 2828 2175 2409 1742 
Q 1991 1309 1228 531 
z
" transform="scale(0.015625)"/>
       </defs>
       <use xlink:href="#DejaVuSans-32"/>
       <use xlink:href="#DejaVuSans-30" x="63.623047"/>
      </g>
     </g>
    </g>
    <g id="xtick_3">
     <g id="line2d_3">
      <g>
       <use xlink:href="#m3b028d6e5d" x="161.01554" y="221.76162" style="stroke: #000000"/>
      </g>
     </g>
     <g id="text_3">
      <!-- 40 -->
      <g transform="translate(154.65304 236.360058) scale(0.1 -0.1)">
       <defs>
        <path id="DejaVuSans-34" d="M 2419 4116 
L 825 1625 
L 2419 1625 
L 2419 4116 
z
M 2253 4666 
L 3047 4666 
L 3047 1625 
L 3713 1625 
L 3713 1100 
L 3047 1100 
L 3047 0 
L 2419 0 
L 2419 1100 
L 313 1100 
L 313 1709 
L 2253 4666 
z
" transform="scale(0.015625)"/>
       </defs>
       <use xlink:href="#DejaVuSans-34"/>
       <use xlink:href="#DejaVuSans-30" x="63.623047"/>
      </g>
     </g>
    </g>
    <g id="xtick_4">
     <g id="line2d_4">
      <g>
       <use xlink:href="#m3b028d6e5d" x="216.54819" y="221.76162" style="stroke: #000000"/>
      </g>
     </g>
     <g id="text_4">
      <!-- 60 -->
      <g transform="translate(210.18569 236.360058) scale(0.1 -0.1)">
       <defs>
        <path id="DejaVuSans-36" d="M 2113 2584 
Q 1688 2584 1439 2293 
Q 1191 2003 1191 1497 
Q 1191 994 1439 701 
Q 1688 409 2113 409 
Q 2538 409 2786 701 
Q 3034 994 3034 1497 
Q 3034 2003 2786 2293 
Q 2538 2584 2113 2584 
z
M 3366 4563 
L 3366 3988 
Q 3128 4100 2886 4159 
Q 2644 4219 2406 4219 
Q 1781 4219 1451 3797 
Q 1122 3375 1075 2522 
Q 1259 2794 1537 2939 
Q 1816 3084 2150 3084 
Q 2853 3084 3261 2657 
Q 3669 2231 3669 1497 
Q 3669 778 3244 343 
Q 2819 -91 2113 -91 
Q 1303 -91 875 529 
Q 447 1150 447 2328 
Q 447 3434 972 4092 
Q 1497 4750 2381 4750 
Q 2619 4750 2861 4703 
Q 3103 4656 3366 4563 
z
" transform="scale(0.015625)"/>
       </defs>
       <use xlink:href="#DejaVuSans-36"/>
       <use xlink:href="#DejaVuSans-30" x="63.623047"/>
      </g>
     </g>
    </g>
    <g id="xtick_5">
     <g id="line2d_5">
      <g>
       <use xlink:href="#m3b028d6e5d" x="272.08084" y="221.76162" style="stroke: #000000"/>
      </g>
     </g>
     <g id="text_5">
      <!-- 80 -->
      <g transform="translate(265.71834 236.360058) scale(0.1 -0.1)">
       <defs>
        <path id="DejaVuSans-38" d="M 2034 2216 
Q 1584 2216 1326 1975 
Q 1069 1734 1069 1313 
Q 1069 891 1326 650 
Q 1584 409 2034 409 
Q 2484 409 2743 651 
Q 3003 894 3003 1313 
Q 3003 1734 2745 1975 
Q 2488 2216 2034 2216 
z
M 1403 2484 
Q 997 2584 770 2862 
Q 544 3141 544 3541 
Q 544 4100 942 4425 
Q 1341 4750 2034 4750 
Q 2731 4750 3128 4425 
Q 3525 4100 3525 3541 
Q 3525 3141 3298 2862 
Q 3072 2584 2669 2484 
Q 3125 2378 3379 2068 
Q 3634 1759 3634 1313 
Q 3634 634 3220 271 
Q 2806 -91 2034 -91 
Q 1263 -91 848 271 
Q 434 634 434 1313 
Q 434 1759 690 2068 
Q 947 2378 1403 2484 
z
M 1172 3481 
Q 1172 3119 1398 2916 
Q 1625 2713 2034 2713 
Q 2441 2713 2670 2916 
Q 2900 3119 2900 3481 
Q 2900 3844 2670 4047 
Q 2441 4250 2034 4250 
Q 1625 4250 1398 4047 
Q 1172 3844 1172 3481 
z
" transform="scale(0.015625)"/>
       </defs>
       <use xlink:href="#DejaVuSans-38"/>
       <use xlink:href="#DejaVuSans-30" x="63.623047"/>
      </g>
     </g>
    </g>
    <g id="xtick_6">
     <g id="line2d_6">
      <g>
       <use xlink:href="#m3b028d6e5d" x="327.61349" y="221.76162" style="stroke: #000000"/>
      </g>
     </g>
     <g id="text_6">
      <!-- 100 -->
      <g transform="translate(318.06974 236.360058) scale(0.1 -0.1)">
       <defs>
        <path id="DejaVuSans-31" d="M 794 531 
L 1825 531 
L 1825 4091 
L 703 3866 
L 703 4441 
L 1819 4666 
L 2450 4666 
L 2450 531 
L 3481 531 
L 3481 0 
L 794 0 
L 794 531 
z
" transform="scale(0.015625)"/>
       </defs>
       <use xlink:href="#DejaVuSans-31"/>
       <use xlink:href="#DejaVuSans-30" x="63.623047"/>
       <use xlink:href="#DejaVuSans-30" x="127.246094"/>
      </g>
     </g>
    </g>
    <g id="text_7">
     <!-- $\mathrm{time\ (ns)}$ -->
     <g transform="translate(166.181865 250.038183) scale(0.1 -0.1)">
      <defs>
       <path id="DejaVuSans-74" d="M 1172 4494 
L 1172 3500 
L 2356 3500 
L 2356 3053 
L 1172 3053 
L 1172 1153 
Q 1172 725 1289 603 
Q 1406 481 1766 481 
L 2356 481 
L 2356 0 
L 1766 0 
Q 1100 0 847 248 
Q 594 497 594 1153 
L 594 3053 
L 172 3053 
L 172 3500 
L 594 3500 
L 594 4494 
L 1172 4494 
z
" transform="scale(0.015625)"/>
       <path id="DejaVuSans-69" d="M 603 3500 
L 1178 3500 
L 1178 0 
L 603 0 
L 603 3500 
z
M 603 4863 
L 1178 4863 
L 1178 4134 
L 603 4134 
L 603 4863 
z
" transform="scale(0.015625)"/>
       <path id="DejaVuSans-6d" d="M 3328 2828 
Q 3544 3216 3844 3400 
Q 4144 3584 4550 3584 
Q 5097 3584 5394 3201 
Q 5691 2819 5691 2113 
L 5691 0 
L 5113 0 
L 5113 2094 
Q 5113 2597 4934 2840 
Q 4756 3084 4391 3084 
Q 3944 3084 3684 2787 
Q 3425 2491 3425 1978 
L 3425 0 
L 2847 0 
L 2847 2094 
Q 2847 2600 2669 2842 
Q 2491 3084 2119 3084 
Q 1678 3084 1418 2786 
Q 1159 2488 1159 1978 
L 1159 0 
L 581 0 
L 581 3500 
L 1159 3500 
L 1159 2956 
Q 1356 3278 1631 3431 
Q 1906 3584 2284 3584 
Q 2666 3584 2933 3390 
Q 3200 3197 3328 2828 
z
" transform="scale(0.015625)"/>
       <path id="DejaVuSans-65" d="M 3597 1894 
L 3597 1613 
L 953 1613 
Q 991 1019 1311 708 
Q 1631 397 2203 397 
Q 2534 397 2845 478 
Q 3156 559 3463 722 
L 3463 178 
Q 3153 47 2828 -22 
Q 2503 -91 2169 -91 
Q 1331 -91 842 396 
Q 353 884 353 1716 
Q 353 2575 817 3079 
Q 1281 3584 2069 3584 
Q 2775 3584 3186 3129 
Q 3597 2675 3597 1894 
z
M 3022 2063 
Q 3016 2534 2758 2815 
Q 2500 3097 2075 3097 
Q 1594 3097 1305 2825 
Q 1016 2553 972 2059 
L 3022 2063 
z
" transform="scale(0.015625)"/>
       <path id="DejaVuSans-28" d="M 1984 4856 
Q 1566 4138 1362 3434 
Q 1159 2731 1159 2009 
Q 1159 1288 1364 580 
Q 1569 -128 1984 -844 
L 1484 -844 
Q 1016 -109 783 600 
Q 550 1309 550 2009 
Q 550 2706 781 3412 
Q 1013 4119 1484 4856 
L 1984 4856 
z
" transform="scale(0.015625)"/>
       <path id="DejaVuSans-6e" d="M 3513 2113 
L 3513 0 
L 2938 0 
L 2938 2094 
Q 2938 2591 2744 2837 
Q 2550 3084 2163 3084 
Q 1697 3084 1428 2787 
Q 1159 2491 1159 1978 
L 1159 0 
L 581 0 
L 581 3500 
L 1159 3500 
L 1159 2956 
Q 1366 3272 1645 3428 
Q 1925 3584 2291 3584 
Q 2894 3584 3203 3211 
Q 3513 2838 3513 2113 
z
" transform="scale(0.015625)"/>
       <path id="DejaVuSans-73" d="M 2834 3397 
L 2834 2853 
Q 2591 2978 2328 3040 
Q 2066 3103 1784 3103 
Q 1356 3103 1142 2972 
Q 928 2841 928 2578 
Q 928 2378 1081 2264 
Q 1234 2150 1697 2047 
L 1894 2003 
Q 2506 1872 2764 1633 
Q 3022 1394 3022 966 
Q 3022 478 2636 193 
Q 2250 -91 1575 -91 
Q 1294 -91 989 -36 
Q 684 19 347 128 
L 347 722 
Q 666 556 975 473 
Q 1284 391 1588 391 
Q 1994 391 2212 530 
Q 2431 669 2431 922 
Q 2431 1156 2273 1281 
Q 2116 1406 1581 1522 
L 1381 1569 
Q 847 1681 609 1914 
Q 372 2147 372 2553 
Q 372 3047 722 3315 
Q 1072 3584 1716 3584 
Q 2034 3584 2315 3537 
Q 2597 3491 2834 3397 
z
" transform="scale(0.015625)"/>
       <path id="DejaVuSans-29" d="M 513 4856 
L 1013 4856 
Q 1481 4119 1714 3412 
Q 1947 2706 1947 2009 
Q 1947 1309 1714 600 
Q 1481 -109 1013 -844 
L 513 -844 
Q 928 -128 1133 580 
Q 1338 1288 1338 2009 
Q 1338 2731 1133 3434 
Q 928 4138 513 4856 
z
" transform="scale(0.015625)"/>
      </defs>
      <use xlink:href="#DejaVuSans-74" transform="translate(0 0.015625)"/>
      <use xlink:href="#DejaVuSans-69" transform="translate(39.208984 0.015625)"/>
      <use xlink:href="#DejaVuSans-6d" transform="translate(66.992188 0.015625)"/>
      <use xlink:href="#DejaVuSans-65" transform="translate(164.404297 0.015625)"/>
      <use xlink:href="#DejaVuSans-28" transform="translate(258.398113 0.015625)"/>
      <use xlink:href="#DejaVuSans-6e" transform="translate(297.411785 0.015625)"/>
      <use xlink:href="#DejaVuSans-73" transform="translate(360.790691 0.015625)"/>
      <use xlink:href="#DejaVuSans-29" transform="translate(412.8903 0.015625)"/>
     </g>
    </g>
   </g>
   <g id="matplotlib.axis_2">
    <g id="ytick_1">
     <g id="line2d_7">
      <defs>
       <path id="m1890d44904" d="M 0 0 
L -3.5 0 
" style="stroke: #000000"/>
      </defs>
      <g>
       <use xlink:href="#m1890d44904" x="49.95024" y="221.76162" style="stroke: #000000"/>
      </g>
     </g>
     <g id="text_8">
      <!-- 0 -->
      <g transform="translate(36.58774 225.560839) scale(0.1 -0.1)">
       <use xlink:href="#DejaVuSans-30"/>
      </g>
     </g>
    </g>
    <g id="ytick_2">
     <g id="line2d_8">
      <g>
       <use xlink:href="#m1890d44904" x="49.95024" y="198.620341" style="stroke: #000000"/>
      </g>
     </g>
     <g id="text_9">
      <!-- 250 -->
      <g transform="translate(23.86274 202.41956) scale(0.1 -0.1)">
       <defs>
        <path id="DejaVuSans-35" d="M 691 4666 
L 3169 4666 
L 3169 4134 
L 1269 4134 
L 1269 2991 
Q 1406 3038 1543 3061 
Q 1681 3084 1819 3084 
Q 2600 3084 3056 2656 
Q 3513 2228 3513 1497 
Q 3513 744 3044 326 
Q 2575 -91 1722 -91 
Q 1428 -91 1123 -41 
Q 819 9 494 109 
L 494 744 
Q 775 591 1075 516 
Q 1375 441 1709 441 
Q 2250 441 2565 725 
Q 2881 1009 2881 1497 
Q 2881 1984 2565 2268 
Q 2250 2553 1709 2553 
Q 1456 2553 1204 2497 
Q 953 2441 691 2322 
L 691 4666 
z
" transform="scale(0.015625)"/>
       </defs>
       <use xlink:href="#DejaVuSans-32"/>
       <use xlink:href="#DejaVuSans-35" x="63.623047"/>
       <use xlink:href="#DejaVuSans-30" x="127.246094"/>
      </g>
     </g>
    </g>
    <g id="ytick_3">
     <g id="line2d_9">
      <g>
       <use xlink:href="#m1890d44904" x="49.95024" y="175.479062" style="stroke: #000000"/>
      </g>
     </g>
     <g id="text_10">
      <!-- 500 -->
      <g transform="translate(23.86274 179.278281) scale(0.1 -0.1)">
       <use xlink:href="#DejaVuSans-35"/>
       <use xlink:href="#DejaVuSans-30" x="63.623047"/>
       <use xlink:href="#DejaVuSans-30" x="127.246094"/>
      </g>
     </g>
    </g>
    <g id="ytick_4">
     <g id="line2d_10">
      <g>
       <use xlink:href="#m1890d44904" x="49.95024" y="152.337783" style="stroke: #000000"/>
      </g>
     </g>
     <g id="text_11">
      <!-- 750 -->
      <g transform="translate(23.86274 156.137002) scale(0.1 -0.1)">
       <defs>
        <path id="DejaVuSans-37" d="M 525 4666 
L 3525 4666 
L 3525 4397 
L 1831 0 
L 1172 0 
L 2766 4134 
L 525 4134 
L 525 4666 
z
" transform="scale(0.015625)"/>
       </defs>
       <use xlink:href="#DejaVuSans-37"/>
       <use xlink:href="#DejaVuSans-35" x="63.623047"/>
       <use xlink:href="#DejaVuSans-30" x="127.246094"/>
      </g>
     </g>
    </g>
    <g id="ytick_5">
     <g id="line2d_11">
      <g>
       <use xlink:href="#m1890d44904" x="49.95024" y="129.196504" style="stroke: #000000"/>
      </g>
     </g>
     <g id="text_12">
      <!-- 1000 -->
      <g transform="translate(17.50024 132.995723) scale(0.1 -0.1)">
       <use xlink:href="#DejaVuSans-31"/>
       <use xlink:href="#DejaVuSans-30" x="63.623047"/>
       <use xlink:href="#DejaVuSans-30" x="127.246094"/>
       <use xlink:href="#DejaVuSans-30" x="190.869141"/>
      </g>
     </g>
    </g>
    <g id="ytick_6">
     <g id="line2d_12">
      <g>
       <use xlink:href="#m1890d44904" x="49.95024" y="106.055225" style="stroke: #000000"/>
      </g>
     </g>
     <g id="text_13">
      <!-- 1250 -->
      <g transform="translate(17.50024 109.854444) scale(0.1 -0.1)">
       <use xlink:href="#DejaVuSans-31"/>
       <use xlink:href="#DejaVuSans-32" x="63.623047"/>
       <use xlink:href="#DejaVuSans-35" x="127.246094"/>
       <use xlink:href="#DejaVuSans-30" x="190.869141"/>
      </g>
     </g>
    </g>
    <g id="ytick_7">
     <g id="line2d_13">
      <g>
       <use xlink:href="#m1890d44904" x="49.95024" y="82.913946" style="stroke: #000000"/>
      </g>
     </g>
     <g id="text_14">
      <!-- 1500 -->
      <g transform="translate(17.50024 86.713165) scale(0.1 -0.1)">
       <use xlink:href="#DejaVuSans-31"/>
       <use xlink:href="#DejaVuSans-35" x="63.623047"/>
       <use xlink:href="#DejaVuSans-30" x="127.246094"/>
       <use xlink:href="#DejaVuSans-30" x="190.869141"/>
      </g>
     </g>
    </g>
    <g id="ytick_8">
     <g id="line2d_14">
      <g>
       <use xlink:href="#m1890d44904" x="49.95024" y="59.772667" style="stroke: #000000"/>
      </g>
     </g>
     <g id="text_15">
      <!-- 1750 -->
      <g transform="translate(17.50024 63.571886) scale(0.1 -0.1)">
       <use xlink:href="#DejaVuSans-31"/>
       <use xlink:href="#DejaVuSans-37" x="63.623047"/>
       <use xlink:href="#DejaVuSans-35" x="127.246094"/>
       <use xlink:href="#DejaVuSans-30" x="190.869141"/>
      </g>
     </g>
    </g>
    <g id="ytick_9">
     <g id="line2d_15">
      <g>
       <use xlink:href="#m1890d44904" x="49.95024" y="36.631388" style="stroke: #000000"/>
      </g>
     </g>
     <g id="text_16">
      <!-- 2000 -->
      <g transform="translate(17.50024 40.430607) scale(0.1 -0.1)">
       <use xlink:href="#DejaVuSans-32"/>
       <use xlink:href="#DejaVuSans-30" x="63.623047"/>
       <use xlink:href="#DejaVuSans-30" x="127.246094"/>
       <use xlink:href="#DejaVuSans-30" x="190.869141"/>
      </g>
     </g>
    </g>
    <g id="text_17">
     <!-- $\mathrm{MSD\ (nm)}^2$ -->
     <g transform="translate(11.420553 147.289993) rotate(-90) scale(0.1 -0.1)">
      <defs>
       <path id="DejaVuSans-4d" d="M 628 4666 
L 1569 4666 
L 2759 1491 
L 3956 4666 
L 4897 4666 
L 4897 0 
L 4281 0 
L 4281 4097 
L 3078 897 
L 2444 897 
L 1241 4097 
L 1241 0 
L 628 0 
L 628 4666 
z
" transform="scale(0.015625)"/>
       <path id="DejaVuSans-53" d="M 3425 4513 
L 3425 3897 
Q 3066 4069 2747 4153 
Q 2428 4238 2131 4238 
Q 1616 4238 1336 4038 
Q 1056 3838 1056 3469 
Q 1056 3159 1242 3001 
Q 1428 2844 1947 2747 
L 2328 2669 
Q 3034 2534 3370 2195 
Q 3706 1856 3706 1288 
Q 3706 609 3251 259 
Q 2797 -91 1919 -91 
Q 1588 -91 1214 -16 
Q 841 59 441 206 
L 441 856 
Q 825 641 1194 531 
Q 1563 422 1919 422 
Q 2459 422 2753 634 
Q 3047 847 3047 1241 
Q 3047 1584 2836 1778 
Q 2625 1972 2144 2069 
L 1759 2144 
Q 1053 2284 737 2584 
Q 422 2884 422 3419 
Q 422 4038 858 4394 
Q 1294 4750 2059 4750 
Q 2388 4750 2728 4690 
Q 3069 4631 3425 4513 
z
" transform="scale(0.015625)"/>
       <path id="DejaVuSans-44" d="M 1259 4147 
L 1259 519 
L 2022 519 
Q 2988 519 3436 956 
Q 3884 1394 3884 2338 
Q 3884 3275 3436 3711 
Q 2988 4147 2022 4147 
L 1259 4147 
z
M 628 4666 
L 1925 4666 
Q 3281 4666 3915 4102 
Q 4550 3538 4550 2338 
Q 4550 1131 3912 565 
Q 3275 0 1925 0 
L 628 0 
L 628 4666 
z
" transform="scale(0.015625)"/>
      </defs>
      <use xlink:href="#DejaVuSans-4d" transform="translate(0 0.765625)"/>
      <use xlink:href="#DejaVuSans-53" transform="translate(86.279297 0.765625)"/>
      <use xlink:href="#DejaVuSans-44" transform="translate(149.755859 0.765625)"/>
      <use xlink:href="#DejaVuSans-28" transform="translate(259.228191 0.765625)"/>
      <use xlink:href="#DejaVuSans-6e" transform="translate(298.241863 0.765625)"/>
      <use xlink:href="#DejaVuSans-6d" transform="translate(361.620769 0.765625)"/>
      <use xlink:href="#DejaVuSans-29" transform="translate(459.032878 0.765625)"/>
      <use xlink:href="#DejaVuSans-32" transform="translate(499.003582 39.046875) scale(0.7)"/>
     </g>
    </g>
   </g>
   <g id="line2d_16">
    <path d="M 49.95024 221.76162 
L 51.74957 220.796419 
L 65.344506 213.661289 
L 108.161892 191.150072 
L 146.803056 169.795023 
L 202.604495 141.362389 
L 225.151652 130.350003 
L 238.280096 123.439803 
L 242.956132 120.946529 
L 254.163069 115.491758 
L 262.948686 110.809854 
L 272.445149 105.458902 
L 278.342952 102.573073 
L 286.362188 98.998131 
L 295.247767 95.702872 
L 297.102632 95.145394 
L 300.257013 94.222794 
L 302.21184 93.77669 
L 305.899356 93.126432 
L 308.787169 92.670566 
L 310.197755 92.573518 
L 312.319187 92.403619 
L 313.907484 92.52667 
L 314.95154 92.535141 
L 316.728656 92.660064 
L 321.660152 93.469428 
L 322.426533 93.609333 
L 323.881547 93.824402 
L 324.259184 93.639075 
L 326.436151 92.659285 
L 326.76936 92.424369 
L 326.902644 92.258736 
L 327.346923 91.426232 
L 327.413565 91.486264 
L 327.446886 91.388757 
L 327.491314 91.236759 
L 327.580169 91.05637 
L 327.602383 91.214568 
L 327.61349 91.325277 
L 327.61349 91.325277 
" clip-path="url(#p6515ae3c9e)" style="fill: none; stroke-dasharray: 3.7,1.6; stroke-dashoffset: 0; stroke: #c23b2e"/>
   </g>
   <g id="line2d_17">
    <path d="M 49.95024 221.76162 
L 51.949495 220.663448 
L 75.57403 207.896264 
L 110.283324 189.786724 
L 121.712401 183.459402 
L 129.109646 179.508634 
L 137.295486 175.138633 
L 162.652708 161.048616 
L 172.326883 155.435586 
L 178.580109 151.882178 
L 185.710787 147.849851 
L 197.017687 141.12062 
L 204.592643 136.458988 
L 210.490446 132.682547 
L 221.019858 125.41452 
L 225.207187 122.562872 
L 239.823966 113.189535 
L 265.825392 97.311841 
L 268.03568 96.101408 
L 273.611381 93.2339 
L 282.341463 88.26589 
L 287.195211 85.330939 
L 294.625777 81.494396 
L 297.869013 80.179012 
L 300.756826 78.914273 
L 306.254779 76.064147 
L 308.198499 75.068946 
L 312.341401 73.174344 
L 313.618703 72.339998 
L 317.661641 69.688286 
L 319.394329 68.952136 
L 322.570924 68.194554 
L 323.303984 67.542363 
L 323.892654 66.891833 
L 325.869695 64.764253 
L 326.191798 64.424108 
L 327.302495 63.247366 
L 327.580169 62.567993 
L 327.602383 62.670419 
L 327.61349 62.800351 
L 327.61349 62.800351 
" clip-path="url(#p6515ae3c9e)" style="fill: none; stroke: #c23b2e; stroke-linecap: square"/>
   </g>
   <g id="line2d_18">
    <path d="M 49.95024 221.76162 
L 52.127207 220.572532 
L 67.932431 211.780643 
L 81.938326 203.704837 
L 101.331103 192.49418 
L 123.578373 179.541578 
L 138.195151 170.732646 
L 166.68454 153.602881 
L 176.92517 147.439058 
L 190.886637 138.849957 
L 197.384217 135.159663 
L 204.081722 131.685149 
L 225.251615 120.955042 
L 232.28233 117.584615 
L 245.75509 110.794073 
L 252.108279 107.47921 
L 257.695087 104.640983 
L 270.945707 97.058981 
L 281.819435 90.628706 
L 287.983806 86.654715 
L 290.382912 85.279398 
L 294.325888 82.992747 
L 297.247023 81.254774 
L 303.966742 78.205131 
L 310.697568 75.675101 
L 316.550944 73.905186 
L 318.428023 73.081451 
L 320.238459 71.854487 
L 321.560189 71.078091 
L 322.704208 70.621284 
L 323.492803 70.365212 
L 323.937082 70.138532 
L 324.925603 69.16702 
L 326.40283 66.577022 
L 327.035928 66.368379 
L 327.480207 65.88251 
L 327.502421 65.769146 
L 327.557955 65.913305 
L 327.591276 65.842805 
L 327.602383 65.840458 
L 327.61349 65.9312 
" clip-path="url(#p6515ae3c9e)" style="fill: none; stroke-dasharray: 3.7,1.6; stroke-dashoffset: 0; stroke: #c23b2e"/>
   </g>
   <g id="line2d_19">
    <path d="M 49.95024 221.76162 
L 52.104993 220.572462 
L 75.285248 207.916103 
L 87.414064 201.290828 
L 109.305911 189.191684 
L 117.647248 184.613221 
L 133.285868 176.055993 
L 147.136265 168.414015 
L 166.562363 158.085346 
L 175.525691 153.658743 
L 181.456816 150.647085 
L 203.048774 139.164588 
L 211.923246 134.354001 
L 225.229401 127.373304 
L 261.138249 107.153442 
L 269.346303 103.209728 
L 275.37739 100.406294 
L 281.230766 97.719126 
L 285.906802 95.403391 
L 289.138931 93.655152 
L 292.748698 91.380144 
L 298.868641 87.312669 
L 302.467301 85.367927 
L 307.332155 83.640993 
L 311.497271 82.217654 
L 312.796787 81.795266 
L 314.151837 81.314941 
L 316.995223 80.066475 
L 318.305846 79.535734 
L 320.082962 79.29012 
L 321.271408 79.122008 
L 323.059631 78.629072 
L 323.959296 78.418083 
L 324.559072 78.108619 
L 325.125528 78.061448 
L 325.836374 77.823517 
L 326.347295 77.851476 
L 326.547221 77.993958 
L 327.402458 78.868525 
L 327.557955 79.104447 
L 327.569062 79.035877 
L 327.580169 79.022963 
L 327.602383 79.086178 
L 327.61349 79.079672 
" clip-path="url(#p6515ae3c9e)" style="fill: none; stroke: #c23b2e; stroke-linecap: square"/>
   </g>
   <g id="line2d_20">
    <path d="M 49.95024 221.76162 
L 51.960602 220.678058 
L 91.490324 199.334206 
L 110.883101 188.943612 
L 128.509869 179.474685 
L 154.866719 165.54269 
L 165.684912 159.89407 
L 198.817016 142.792547 
L 211.534502 135.585343 
L 227.595187 125.99985 
L 244.466681 114.984456 
L 266.547346 101.306524 
L 275.48846 96.243295 
L 278.820552 94.640972 
L 281.997147 93.038458 
L 288.26148 89.730031 
L 290.516196 88.409706 
L 293.104121 86.885962 
L 294.692419 86.042605 
L 297.002669 84.899395 
L 299.046352 83.783186 
L 301.778668 82.405776 
L 304.244416 81.175146 
L 307.143337 79.58205 
L 309.031522 78.509718 
L 312.230331 76.947065 
L 313.985233 76.182086 
L 315.362498 75.559301 
L 316.78419 74.844002 
L 319.138869 73.538741 
L 320.571669 72.645996 
L 321.304729 72.314563 
L 322.215501 71.679387 
L 323.192915 70.977058 
L 323.626087 70.682663 
L 324.159221 70.348558 
L 325.047779 70.344636 
L 325.547593 70.278989 
L 326.358402 70.194981 
L 326.824895 70.505144 
L 327.035928 70.672555 
L 327.391351 71.184161 
L 327.580169 71.749249 
L 327.591276 71.60697 
L 327.602383 71.43392 
L 327.61349 71.448217 
" clip-path="url(#p6515ae3c9e)" style="fill: none; stroke-dasharray: 3.7,1.6; stroke-dashoffset: 0; stroke: #c23b2e"/>
   </g>
   <g id="line2d_21">
    <path d="M 49.95024 221.76162 
L 51.905067 220.701142 
L 62.712153 214.977198 
L 78.36188 206.841106 
L 118.202597 186.651439 
L 147.036302 172.286105 
L 156.543872 167.819848 
L 198.372737 147.818603 
L 223.974313 136.027597 
L 234.126088 131.635639 
L 241.001305 128.396758 
L 247.754345 124.906435 
L 256.95092 120.019579 
L 260.43851 118.149342 
L 268.713206 113.544347 
L 274.910897 110.625832 
L 278.087492 109.064192 
L 281.408477 107.519212 
L 288.539155 104.906613 
L 291.304791 103.792599 
L 294.237033 102.634637 
L 310.464322 97.233265 
L 316.673121 95.862986 
L 317.794925 95.656708 
L 320.01632 95.616833 
L 321.11591 95.697989 
L 321.837864 95.661369 
L 322.248822 95.750566 
L 322.859705 95.882231 
L 323.548338 95.829213 
L 325.891909 94.988193 
L 326.191798 94.860815 
L 327.502421 94.586391 
L 327.580169 94.737947 
L 327.546848 94.560975 
L 327.61349 94.694468 
" clip-path="url(#p6515ae3c9e)" style="fill: none; stroke: #c23b2e; stroke-linecap: square"/>
   </g>
   <g id="line2d_22">
    <path d="M 49.95024 221.76162 
L 51.793998 220.768757 
L 89.702101 200.745252 
L 113.060068 188.646468 
L 120.879378 184.860121 
L 133.952287 178.582606 
L 142.149234 174.410496 
L 152.711966 168.736503 
L 185.84407 150.785493 
L 196.19577 145.322774 
L 203.704085 141.489529 
L 224.596304 131.146525 
L 231.271595 127.722754 
L 237.036115 124.525601 
L 267.713578 107.010318 
L 273.478098 103.91909 
L 276.987901 101.918911 
L 284.229649 97.923682 
L 291.993424 92.975084 
L 298.257757 89.095854 
L 306.265886 84.508917 
L 308.12075 83.692746 
L 312.741252 81.382546 
L 314.373977 80.263167 
L 316.262163 78.7157 
L 321.438013 73.782467 
L 323.581659 72.284833 
L 324.070366 72.217108 
L 325.014458 72.235846 
L 325.92523 72.477298 
L 326.214012 72.46422 
L 327.047035 73.178087 
L 327.258067 73.415781 
L 327.502421 73.348638 
L 327.61349 72.58527 
L 327.61349 72.58527 
" clip-path="url(#p6515ae3c9e)" style="fill: none; stroke-dasharray: 3.7,1.6; stroke-dashoffset: 0; stroke: #c23b2e"/>
   </g>
   <g id="line2d_23">
    <path d="M 49.95024 221.76162 
L 52.093886 220.578258 
L 68.721027 211.271625 
L 104.185595 191.275194 
L 122.278857 181.369107 
L 133.408045 175.380312 
L 164.04108 158.911341 
L 171.849283 154.989992 
L 195.329427 143.693806 
L 203.259806 140.163246 
L 209.302 137.594294 
L 220.6089 132.801555 
L 230.283075 128.352004 
L 245.977229 120.940088 
L 252.130493 117.701919 
L 261.049393 112.422528 
L 265.780964 109.639152 
L 270.534749 107.134852 
L 274.42219 105.421638 
L 278.798338 103.363592 
L 282.252607 101.872977 
L 285.773518 100.507675 
L 287.728346 99.790059 
L 293.814968 97.783808 
L 296.125218 96.997121 
L 301.767561 95.587631 
L 305.988211 94.461016 
L 308.987094 93.541917 
L 312.552433 92.472384 
L 314.751614 91.469972 
L 316.095558 90.584877 
L 325.30324 83.007354 
L 326.40283 82.0787 
L 326.547221 82.00227 
L 326.869323 81.674413 
L 327.091463 81.469563 
L 327.102569 81.478813 
L 327.302495 81.426902 
L 327.435779 81.288815 
L 327.513528 81.152361 
L 327.557955 81.22965 
L 327.602383 81.581895 
L 327.61349 81.482884 
" clip-path="url(#p6515ae3c9e)" style="fill: none; stroke: #c23b2e; stroke-linecap: square"/>
   </g>
   <g id="patch_3">
    <path d="M 49.95024 221.76162 
L 49.95024 18.118365 
" style="fill: none; stroke: #000000; stroke-linejoin: miter; stroke-linecap: square"/>
   </g>
   <g id="patch_4">
    <path d="M 327.61349 221.76162 
L 327.61349 18.118365 
" style="fill: none; stroke: #000000; stroke-linejoin: miter; stroke-linecap: square"/>
   </g>
   <g id="patch_5">
    <path d="M 49.95024 221.76162 
L 327.61349 221.76162 
" style="fill: none; stroke: #000000; stroke-linejoin: miter; stroke-linecap: square"/>
   </g>
   <g id="patch_6">
    <path d="M 49.95024 18.118365 
L 327.61349 18.118365 
" style="fill: none; stroke: #000000; stroke-linejoin: miter; stroke-linecap: square"/>
   </g>
   <g id="text_18">
    <!-- box: 5.6 nm -->
    <g transform="translate(152.914053 12.118365) scale(0.12 -0.12)">
     <defs>
      <path id="DejaVuSans-62" d="M 3116 1747 
Q 3116 2381 2855 2742 
Q 2594 3103 2138 3103 
Q 1681 3103 1420 2742 
Q 1159 2381 1159 1747 
Q 1159 1113 1420 752 
Q 1681 391 2138 391 
Q 2594 391 2855 752 
Q 3116 1113 3116 1747 
z
M 1159 2969 
Q 1341 3281 1617 3432 
Q 1894 3584 2278 3584 
Q 2916 3584 3314 3078 
Q 3713 2572 3713 1747 
Q 3713 922 3314 415 
Q 2916 -91 2278 -91 
Q 1894 -91 1617 61 
Q 1341 213 1159 525 
L 1159 0 
L 581 0 
L 581 4863 
L 1159 4863 
L 1159 2969 
z
" transform="scale(0.015625)"/>
      <path id="DejaVuSans-6f" d="M 1959 3097 
Q 1497 3097 1228 2736 
Q 959 2375 959 1747 
Q 959 1119 1226 758 
Q 1494 397 1959 397 
Q 2419 397 2687 759 
Q 2956 1122 2956 1747 
Q 2956 2369 2687 2733 
Q 2419 3097 1959 3097 
z
M 1959 3584 
Q 2709 3584 3137 3096 
Q 3566 2609 3566 1747 
Q 3566 888 3137 398 
Q 2709 -91 1959 -91 
Q 1206 -91 779 398 
Q 353 888 353 1747 
Q 353 2609 779 3096 
Q 1206 3584 1959 3584 
z
" transform="scale(0.015625)"/>
      <path id="DejaVuSans-78" d="M 3513 3500 
L 2247 1797 
L 3578 0 
L 2900 0 
L 1881 1375 
L 863 0 
L 184 0 
L 1544 1831 
L 300 3500 
L 978 3500 
L 1906 2253 
L 2834 3500 
L 3513 3500 
z
" transform="scale(0.015625)"/>
      <path id="DejaVuSans-3a" d="M 750 794 
L 1409 794 
L 1409 0 
L 750 0 
L 750 794 
z
M 750 3309 
L 1409 3309 
L 1409 2516 
L 750 2516 
L 750 3309 
z
" transform="scale(0.015625)"/>
      <path id="DejaVuSans-20" transform="scale(0.015625)"/>
      <path id="DejaVuSans-2e" d="M 684 794 
L 1344 794 
L 1344 0 
L 684 0 
L 684 794 
z
" transform="scale(0.015625)"/>
     </defs>
     <use xlink:href="#DejaVuSans-62"/>
     <use xlink:href="#DejaVuSans-6f" x="63.476562"/>
     <use xlink:href="#DejaVuSans-78" x="121.533203"/>
     <use xlink:href="#DejaVuSans-3a" x="180.712891"/>
     <use xlink:href="#DejaVuSans-20" x="214.404297"/>
     <use xlink:href="#DejaVuSans-35" x="246.191406"/>
     <use xlink:href="#DejaVuSans-2e" x="309.814453"/>
     <use xlink:href="#DejaVuSans-36" x="341.601562"/>
     <use xlink:href="#DejaVuSans-20" x="405.224609"/>
     <use xlink:href="#DejaVuSans-6e" x="437.011719"/>
     <use xlink:href="#DejaVuSans-6d" x="500.390625"/>
    </g>
   </g>
   <g id="legend_1">
    <g id="patch_7">
     <path d="M 269.81349 55.474615 
L 320.61349 55.474615 
Q 322.61349 55.474615 322.61349 53.474615 
L 322.61349 25.118365 
Q 322.61349 23.118365 320.61349 23.118365 
L 269.81349 23.118365 
Q 267.81349 23.118365 267.81349 25.118365 
L 267.81349 53.474615 
Q 267.81349 55.474615 269.81349 55.474615 
z
" style="fill: #ffffff; opacity: 0.8; stroke: #cccccc; stroke-linejoin: miter"/>
    </g>
    <g id="line2d_24">
     <path d="M 271.81349 31.216803 
L 281.81349 31.216803 
L 291.81349 31.216803 
" style="fill: none; stroke-dasharray: 3.7,1.6; stroke-dashoffset: 0; stroke: #c23b2e"/>
    </g>
    <g id="text_19">
     <!-- $\mathrm{Cl}^-$ -->
     <g transform="translate(299.81349 34.716803) scale(0.1 -0.1)">
      <defs>
       <path id="DejaVuSans-43" d="M 4122 4306 
L 4122 3641 
Q 3803 3938 3442 4084 
Q 3081 4231 2675 4231 
Q 1875 4231 1450 3742 
Q 1025 3253 1025 2328 
Q 1025 1406 1450 917 
Q 1875 428 2675 428 
Q 3081 428 3442 575 
Q 3803 722 4122 1019 
L 4122 359 
Q 3791 134 3420 21 
Q 3050 -91 2638 -91 
Q 1578 -91 968 557 
Q 359 1206 359 2328 
Q 359 3453 968 4101 
Q 1578 4750 2638 4750 
Q 3056 4750 3426 4639 
Q 3797 4528 4122 4306 
z
" transform="scale(0.015625)"/>
       <path id="DejaVuSans-6c" d="M 603 4863 
L 1178 4863 
L 1178 0 
L 603 0 
L 603 4863 
z
" transform="scale(0.015625)"/>
       <path id="DejaVuSans-2212" d="M 678 2272 
L 4684 2272 
L 4684 1741 
L 678 1741 
L 678 2272 
z
" transform="scale(0.015625)"/>
      </defs>
      <use xlink:href="#DejaVuSans-43" transform="translate(0 0.015625)"/>
      <use xlink:href="#DejaVuSans-6c" transform="translate(69.824219 0.015625)"/>
      <use xlink:href="#DejaVuSans-2212" transform="translate(112.202148 38.296875) scale(0.7)"/>
     </g>
    </g>
    <g id="line2d_25">
     <path d="M 271.81349 45.894927 
L 281.81349 45.894927 
L 291.81349 45.894927 
" style="fill: none; stroke: #c23b2e; stroke-linecap: square"/>
    </g>
    <g id="text_20">
     <!-- $\mathrm{K}^+$ -->
     <g transform="translate(299.81349 49.394927) scale(0.1 -0.1)">
      <defs>
       <path id="DejaVuSans-4b" d="M 628 4666 
L 1259 4666 
L 1259 2694 
L 3353 4666 
L 4166 4666 
L 1850 2491 
L 4331 0 
L 3500 0 
L 1259 2247 
L 1259 0 
L 628 0 
L 628 4666 
z
" transform="scale(0.015625)"/>
       <path id="DejaVuSans-2b" d="M 2944 4013 
L 2944 2272 
L 4684 2272 
L 4684 1741 
L 2944 1741 
L 2944 0 
L 2419 0 
L 2419 1741 
L 678 1741 
L 678 2272 
L 2419 2272 
L 2419 4013 
L 2944 4013 
z
" transform="scale(0.015625)"/>
      </defs>
      <use xlink:href="#DejaVuSans-4b" transform="translate(0 0.826562)"/>
      <use xlink:href="#DejaVuSans-2b" transform="translate(80.170898 39.107812) scale(0.7)"/>
     </g>
    </g>
   </g>
  </g>
 </g>
 <defs>
  <clipPath id="p6515ae3c9e">
   <rect x="49.95024" y="18.118365" width="277.66325" height="203.643255"/>
  </clipPath>
 </defs>
</svg>
